<svg width="512" height="512" viewBox="0 0 136 136" xmlns="http://www.w3.org/2000/svg"><g transform="translate(.0234 .805)"><path d="m12.9 85.4c0.381-1.04 0.737-2.04 0.791-2.24 0.0615-0.216 0.246-0.327 0.483-0.29 0.348 0.053 0.952 1.42 1.81 4.08 0.172 0.536-0.404 0.408-0.656-0.145-0.191-0.42-0.346-0.484-1.16-0.484-0.816 0-0.97 0.0644-1.16 0.484-0.121 0.266-0.349 0.484-0.507 0.484-0.225 0-0.138-0.405 0.406-1.89zm1.99 0.29c-0.0083-0.133-0.168-0.677-0.355-1.21l-0.34-0.968-0.419 1.12c-0.23 0.616-0.419 1.16-0.419 1.21 0 0.0492 0.348 0.0895 0.774 0.0895 0.498 0 0.769-0.0862 0.759-0.242zm5.21 1.27c-0.662-0.41-0.934-1.02-0.934-2.08 0-0.688 0.112-0.959 0.596-1.44 0.791-0.791 2.18-0.85 3.02-0.128 0.565 0.486 0.483 0.955-0.0953 0.542-1.21-0.864-2.27-0.714-2.81 0.397-0.489 0.996-0.175 2 0.746 2.38 1 0.419 2.22-0.167 2.22-1.07 0-0.116-0.384-0.206-0.871-0.206-0.479 0-0.871-0.0871-0.871-0.194 0-0.108 0.516-0.194 1.16-0.194 1.02 0 1.16 0.045 1.16 0.378 0 1.52-1.95 2.47-3.32 1.61zm6.81-1.9v-2.23h1.16c1.38 0 1.57 0.34 0.242 0.425-0.911 0.0584-0.92 0.066-0.98 0.785l-0.0601 0.726h0.883c1.11 0 1.16 0.345 0.0601 0.424-0.821 0.0594-0.823 0.0613-0.823 0.834v0.774l0.92 0.059c1.33 0.0851 1.13 0.425-0.242 0.425h-1.16zm6 0c0-1.75 0.0566-2.23 0.263-2.23 0.145 0 0.798 0.806 1.45 1.79l1.19 1.79 0.0012-1.79c9.83e-4 -1.46 0.0545-1.79 0.292-1.79 0.241 0 0.29 0.376 0.29 2.23 0 2.88-0.215 2.93-1.84 0.43l-1.16-1.78-0.0557 1.79c-0.0806 2.59-0.428 2.24-0.428-0.436zm7.77 1.96c-0.661-0.366-0.975-1.04-0.982-2.12-0.0057-0.78 0.0869-1.03 0.559-1.5 0.473-0.473 0.723-0.566 1.52-0.566 0.93 0 1.98 0.52 1.98 0.982 0 0.294-0.39 0.205-0.915-0.208-0.958-0.754-2.17-0.351-2.56 0.855-0.469 1.42 0.812 2.79 2.11 2.25 0.312-0.129 0.614-0.358 0.672-0.508 0.14-0.366 0.698-0.349 0.698 0.0206 0 0.432-1.16 1.06-1.94 1.05-0.373-0.0034-0.886-0.122-1.14-0.263zm6.76-1.96c0-1.36 0.0758-2.23 0.194-2.23 0.118 0 0.194 0.871 0.194 2.23s-0.0758 2.23-0.194 2.23c-0.118 0-0.194-0.871-0.194-2.23zm4.58 0.339c0.381-1.04 0.737-2.04 0.791-2.24 0.0615-0.216 0.246-0.327 0.483-0.29 0.348 0.053 0.952 1.42 1.81 4.08 0.172 0.536-0.404 0.408-0.656-0.145-0.191-0.42-0.346-0.484-1.16-0.484s-0.97 0.0644-1.16 0.484c-0.121 0.266-0.349 0.484-0.507 0.484-0.225 0-0.138-0.405 0.406-1.89zm1.99 0.29c-0.0083-0.133-0.168-0.677-0.355-1.21l-0.34-0.968-0.419 1.12c-0.23 0.616-0.419 1.16-0.419 1.21 0 0.0492 0.348 0.0895 0.774 0.0895 0.498 0 0.769-0.0862 0.759-0.242zm8.92-0.629v-2.23h1.16c0.99 0 1.24 0.0773 1.75 0.532 0.416 0.372 0.626 0.766 0.697 1.31 0.213 1.63-0.765 2.61-2.59 2.61l-1.02 7.24e-4zm2.66 1.15c1.03-1.16 0.0861-3.08-1.45-2.95l-0.729 0.0603-0.0571 1.53c-0.0314 0.842-0.0082 1.66 0.0516 1.82 0.174 0.453 1.65 0.144 2.18-0.457zm4.31-1.15v-2.23h1.16c1.38 0 1.57 0.34 0.242 0.425-0.911 0.0584-0.92 0.066-0.98 0.785l-0.0601 0.726h0.883c1.11 0 1.16 0.345 0.0601 0.424-0.821 0.0594-0.823 0.0613-0.823 0.834v0.774l0.92 0.059c1.33 0.0851 1.13 0.425-0.242 0.425h-1.16zm10.7 0.169c-0.423-1.14-0.801-2.15-0.84-2.25-0.0389-0.099 0.0802-0.15 0.265-0.113 0.225 0.0448 0.536 0.622 0.942 1.75 0.334 0.924 0.656 1.73 0.716 1.79 0.06 0.0593 0.404-0.718 0.764-1.73 0.374-1.05 0.763-1.84 0.907-1.84 0.36 0 0.337 0.11-0.501 2.34-1.04 2.76-1.24 2.77-2.25 0.0505zm6.49-0.169c0-1.36 0.0758-2.23 0.194-2.23 0.118 0 0.194 0.871 0.194 2.23s-0.0758 2.23-0.194 2.23c-0.118 0-0.194-0.871-0.194-2.23zm4.39 0.339c0.381-1.04 0.737-2.04 0.791-2.24 0.0615-0.216 0.246-0.327 0.483-0.29 0.348 0.053 0.952 1.42 1.81 4.08 0.172 0.536-0.404 0.408-0.656-0.145-0.191-0.42-0.346-0.484-1.16-0.484-0.816 0-0.97 0.0644-1.16 0.484-0.121 0.266-0.349 0.484-0.507 0.484-0.225 0-0.138-0.405 0.406-1.89zm1.99 0.29c-0.0083-0.133-0.168-0.677-0.355-1.21l-0.34-0.968-0.419 1.12c-0.23 0.616-0.419 1.16-0.419 1.21 0 0.0492 0.348 0.0895 0.774 0.0895 0.498 0 0.769-0.0862 0.759-0.242zm5.4 1.27c-0.662-0.41-0.934-1.02-0.934-2.08 0-0.688 0.112-0.959 0.596-1.44 0.791-0.791 2.18-0.85 3.02-0.128 0.565 0.486 0.483 0.955-0.0953 0.542-1.21-0.864-2.27-0.714-2.81 0.397-0.489 0.996-0.175 2 0.746 2.38 1 0.419 2.22-0.167 2.22-1.07 0-0.116-0.384-0.206-0.871-0.206-0.479 0-0.871-0.0871-0.871-0.194 0-0.108 0.516-0.194 1.16-0.194 1.02 0 1.16 0.045 1.16 0.378 0 1.52-1.95 2.47-3.32 1.61zm6.81-1.9v-2.23h1.16c1.38 0 1.57 0.34 0.242 0.425-0.911 0.0584-0.92 0.066-0.98 0.785l-0.0601 0.726h0.883c1.11 0 1.16 0.345 0.0601 0.424-0.821 0.0594-0.823 0.0613-0.823 0.834v0.774l0.92 0.059c1.33 0.0851 1.13 0.425-0.242 0.425h-1.16zm5.81 0c0-1.75 0.0566-2.23 0.263-2.23 0.145 0 0.798 0.806 1.45 1.79l1.19 1.79 1e-3 -1.79c9.8e-4 -1.46 0.0545-1.79 0.292-1.79 0.241 0 0.29 0.376 0.29 2.23 0 2.88-0.215 2.93-1.84 0.43l-1.16-1.78-0.0557 1.79c-0.0806 2.59-0.428 2.24-0.428-0.436zm7.36 1.84c-0.213-0.213-0.387-0.474-0.387-0.581 0-0.327 0.476-0.215 0.826 0.194 0.415 0.484 0.952 0.495 1.38 0.028 0.48-0.53 0.217-0.913-0.903-1.32-1.21-0.436-1.56-1.08-1.04-1.89 0.268-0.409 0.478-0.499 1.16-0.499 0.765 0 1.48 0.404 1.48 0.838 0 0.242-0.532 0.132-0.774-0.16-0.307-0.37-1.04-0.375-1.35-0.0093-0.397 0.478-0.0584 0.998 0.819 1.26 0.451 0.134 0.928 0.332 1.06 0.44 0.364 0.297 0.295 1.4-0.112 1.77-0.497 0.45-1.68 0.413-2.16-0.0668zm-91.8-4.63c0-0.104 0.186-0.32 0.413-0.479 0.367-0.257 0.464-0.256 0.871 0.0113 0.595 0.39 0.594 0.696-0.0011 0.425-0.334-0.152-0.572-0.149-0.871 0.011-0.247 0.132-0.412 0.145-0.412 0.0309zm19.9-17.4v-15h6.39v2.14l0.576-0.656c0.886-1.01 2.69-1.74 4.57-1.84 4.61-0.248 8.77 3.02 10.2 8 0.41 1.46 0.356 5.15-0.0941 6.49-1.67 4.94-5.59 7.94-10.1 7.71-1.87-0.0986-3.5-0.757-4.5-1.82l-0.65-0.69v10.7h-6.39zm13.1 0.368c1.68-0.835 2.55-2.46 2.55-4.7-0.0052-1.57-0.428-2.57-1.49-3.53-0.973-0.877-1.95-1.22-3.44-1.21-1.95 0.0145-3.61 1.2-4.14 2.96-0.285 0.952-0.283 2.96 0.0037 3.92 0.282 0.94 1.34 2.19 2.26 2.68 1.09 0.575 2.98 0.524 4.25-0.113zm49.4-0.368v-15h6.39v2.16l0.496-0.589c0.806-0.958 2.76-1.81 4.4-1.91 4.64-0.298 8.61 2.66 10.3 7.7 0.513 1.51 0.511 5.28-3e-3 6.78-1.38 4.02-4.28 6.83-7.81 7.56-2.48 0.516-5.37-0.196-6.76-1.67l-0.65-0.69v10.7h-6.39zm13.1 0.378c1.71-0.854 2.57-2.43 2.57-4.71-5e-3 -1.58-0.426-2.58-1.49-3.53-0.973-0.877-1.95-1.22-3.44-1.21-1.41 0.0105-2.51 0.522-3.37 1.57-0.744 0.902-0.98 1.71-0.982 3.36-2e-3 2.15 0.728 3.59 2.28 4.48 1.27 0.733 3.02 0.749 4.45 0.0405zm-29.3 6.41c-0.562-0.136-1.07-0.298-1.14-0.36-0.0621-0.0621 0.222-0.793 0.632-1.62 0.868-1.76 2.7-3.72 4.26-4.56l0.995-0.533 0.484 1.21c0.351 0.876 0.584 1.21 0.844 1.21 0.312 0 0.372-0.204 0.456-1.54l0.0968-1.54 0.871-0.162c0.479-0.0889 1.61-0.122 2.52-0.0728 1.25 0.0676 1.51 0.0431 1.06-0.102-0.32-0.105-1.47-0.205-2.56-0.222l-1.98-0.0311-1.38e-4 -1.69c-7.5e-5 -0.932 0.0652-1.69 0.145-1.69 0.522 0.0049 3.48 0.838 4.43 1.25 0.627 0.271 0.974 0.365 0.772 0.209-0.557-0.43-2.98-1.39-4.23-1.68l-1.11-0.256v-0.92c0-0.866 0.0735-0.998 1.25-2.25 0.688-0.729 1.34-1.56 1.45-1.86 0.274-0.721 0.254-1.47-0.0406-1.5-1.01-0.0932-1.86 0.361-3.35 1.79l-1.18 1.13-4.63 0.052c-4.11 0.0461-4.64 0.0878-4.69 0.369-0.0468 0.244 0.588 0.575 2.76 1.44 1.64 0.652 2.82 1.23 2.82 1.38 0 0.141-0.16 0.256-0.356 0.256-1.64 0-6.01 1.81-7.91 3.27l-1.01 0.776-0.15-0.718c-0.228-1.09-0.166-3.69 0.117-4.88 0.968-4.09 4.43-7.55 8.54-8.54 1.65-0.4 4.31-0.323 5.9 0.171 6.02 1.86 9.5 8.34 7.73 14.4-1.08 3.68-4.38 6.85-8.14 7.82-1.42 0.365-4.19 0.378-5.64 0.0264zm-82.8-0.758c-1.18-0.548-2.45-1.94-2.92-3.18-0.29-0.769-0.354-1.73-0.415-6.28l-0.0726-5.37h-2.49v-6.2h2.52v-6h6.39v6h5.42v6.2h-5.42v3.65c0 3.48 0.0205 3.68 0.442 4.31 0.568 0.844 1.38 1.12 3.38 1.13l1.6 0.0109v6.2l-3.73-0.0019c-3.5-0.0018-3.79-0.0293-4.7-0.456zm10.4-10.3v-10.8h6.39v3.33l0.64-0.93c0.771-1.12 2.14-2.1 3.48-2.5 1.03-0.306 3.94-0.396 4.35-0.135 0.188 0.119 0.148 0.804-0.182 3.16l-0.421 3.01-2.44-0.0182c-2.25-0.0168-2.51 0.0195-3.4 0.476-0.695 0.356-1.1 0.735-1.45 1.36l-0.484 0.861-0.12 12.9h-6.37zm16.5 0v-10.8h6.39v21.5h-6.39zm39.3 10.6c-0.972-0.296-1.71-0.793-2.48-1.66-1.38-1.56-1.46-2-1.54-8.08l-0.0726-5.37h-2.49v-6.2h2.52v-6h6.39v6h5.42v6.2h-5.42l0.0029 3.63c0.0031 3.91 0.0758 4.26 1.02 4.96 0.437 0.324 0.901 0.414 2.47 0.477l1.93 0.0776v6.15l-3.63-0.0166c-2-0.0092-3.85-0.0831-4.12-0.164zm13.3-0.991c-1.29-0.819-2.8-2.38-3.64-3.76-1-1.66-0.993-1.77 0.174-2.73l1.01-0.826 1.51 0.64c1.38 0.585 1.51 0.683 1.46 1.15-0.0337 0.307 0.043 0.516 0.194 0.528 0.137 0.0113 0.414 0.0331 0.616 0.0484 0.264 0.02 0.5 0.379 0.842 1.29 0.46 1.22 0.465 1.28 0.14 1.84-0.185 0.32-0.546 0.995-0.804 1.5-0.258 0.506-0.49 0.92-0.517 0.92-0.0268 0-0.468-0.266-0.981-0.591zm2.99-4.16v-1.3l1.29-1.44c1.45-1.62 2-2.05 2.44-1.88 0.252 0.0967 1.11 1.96 1.11 2.4 0 0.0824-0.547 0.419-1.22 0.748-0.668 0.329-1.76 1.09-2.42 1.69l-1.2 1.09zm-4.93-3.38c0.29-0.469 4.56-2.32 5.36-2.32 0.133 0-0.319 0.566-1 1.26l-1.25 1.26h-1.61c-1.05 0-1.57-0.069-1.49-0.198zm-49-15c-0.478-0.287-1.03-0.854-1.33-1.36-0.43-0.733-0.496-1.04-0.422-1.94 0.0968-1.17 0.443-1.76 1.56-2.66 2.22-1.8 5.8 0.265 5.52 3.19-0.25 2.6-3.12 4.09-5.32 2.77z" fill="#ea9842"/><path d="m12.9 85.4c0.381-1.04 0.737-2.04 0.791-2.24 0.0615-0.216 0.246-0.327 0.483-0.29 0.348 0.053 0.952 1.42 1.81 4.08 0.172 0.536-0.404 0.408-0.656-0.145-0.191-0.42-0.346-0.484-1.16-0.484-0.816 0-0.97 0.0644-1.16 0.484-0.121 0.266-0.349 0.484-0.507 0.484-0.225 0-0.138-0.405 0.406-1.89zm1.99 0.29c-0.0083-0.133-0.168-0.677-0.355-1.21l-0.34-0.968-0.419 1.12c-0.23 0.616-0.419 1.16-0.419 1.21 0 0.0492 0.348 0.0895 0.774 0.0895 0.498 0 0.769-0.0862 0.759-0.242zm5.21 1.27c-0.662-0.41-0.934-1.02-0.934-2.08 0-0.688 0.112-0.959 0.596-1.44 0.791-0.791 2.18-0.85 3.02-0.128 0.565 0.486 0.483 0.955-0.0953 0.542-1.21-0.864-2.27-0.714-2.81 0.397-0.489 0.996-0.175 2 0.746 2.38 1 0.419 2.22-0.167 2.22-1.07 0-0.116-0.384-0.206-0.871-0.206-0.479 0-0.871-0.0871-0.871-0.194 0-0.108 0.516-0.194 1.16-0.194 1.02 0 1.16 0.045 1.16 0.378 0 1.52-1.95 2.47-3.32 1.61zm6.81-1.9v-2.23h1.16c1.38 0 1.57 0.34 0.242 0.425-0.911 0.0584-0.92 0.066-0.98 0.785l-0.0601 0.726h0.883c1.11 0 1.16 0.345 0.0601 0.424-0.821 0.0594-0.823 0.0613-0.823 0.834v0.774l0.92 0.059c1.33 0.0851 1.13 0.425-0.242 0.425h-1.16zm6 0c0-1.75 0.0566-2.23 0.263-2.23 0.145 0 0.798 0.806 1.45 1.79l1.19 1.79 0.0012-1.79c9.83e-4 -1.46 0.0545-1.79 0.292-1.79 0.241 0 0.29 0.376 0.29 2.23 0 2.88-0.215 2.93-1.84 0.43l-1.16-1.78-0.0557 1.79c-0.0806 2.59-0.428 2.24-0.428-0.436zm7.77 1.96c-0.661-0.366-0.975-1.04-0.982-2.12-0.0057-0.78 0.0869-1.03 0.559-1.5 0.473-0.473 0.723-0.566 1.52-0.566 0.93 0 1.98 0.52 1.98 0.982 0 0.294-0.39 0.205-0.915-0.208-0.958-0.754-2.17-0.351-2.56 0.855-0.469 1.42 0.812 2.79 2.11 2.25 0.312-0.129 0.614-0.358 0.672-0.508 0.14-0.366 0.698-0.349 0.698 0.0206 0 0.432-1.16 1.06-1.94 1.05-0.373-0.0034-0.886-0.122-1.14-0.263zm6.76-1.96c0-1.36 0.0758-2.23 0.194-2.23 0.118 0 0.194 0.871 0.194 2.23s-0.0758 2.23-0.194 2.23c-0.118 0-0.194-0.871-0.194-2.23zm4.58 0.339c0.381-1.04 0.737-2.04 0.791-2.24 0.0615-0.216 0.246-0.327 0.483-0.29 0.348 0.053 0.952 1.42 1.81 4.08 0.172 0.536-0.404 0.408-0.656-0.145-0.191-0.42-0.346-0.484-1.16-0.484s-0.97 0.0644-1.16 0.484c-0.121 0.266-0.349 0.484-0.507 0.484-0.225 0-0.138-0.405 0.406-1.89zm1.99 0.29c-0.0083-0.133-0.168-0.677-0.355-1.21l-0.34-0.968-0.419 1.12c-0.23 0.616-0.419 1.16-0.419 1.21 0 0.0492 0.348 0.0895 0.774 0.0895 0.498 0 0.769-0.0862 0.759-0.242zm8.92-0.629v-2.23h1.16c0.99 0 1.24 0.0773 1.75 0.532 0.416 0.372 0.626 0.766 0.697 1.31 0.213 1.63-0.765 2.61-2.59 2.61l-1.02 7.24e-4zm2.66 1.15c1.03-1.16 0.0861-3.08-1.45-2.95l-0.729 0.0603-0.0571 1.53c-0.0314 0.842-0.0082 1.66 0.0516 1.82 0.174 0.453 1.65 0.144 2.18-0.457zm4.31-1.15v-2.23h1.16c1.38 0 1.57 0.34 0.242 0.425-0.911 0.0584-0.92 0.066-0.98 0.785l-0.0601 0.726h0.883c1.11 0 1.16 0.345 0.0601 0.424-0.821 0.0594-0.823 0.0613-0.823 0.834v0.774l0.92 0.059c1.33 0.0851 1.13 0.425-0.242 0.425h-1.16zm10.7 0.169c-0.423-1.14-0.801-2.15-0.84-2.25-0.0389-0.099 0.0802-0.15 0.265-0.113 0.225 0.0448 0.536 0.622 0.942 1.75 0.334 0.924 0.656 1.73 0.716 1.79 0.06 0.0593 0.404-0.718 0.764-1.73 0.374-1.05 0.763-1.84 0.907-1.84 0.36 0 0.337 0.11-0.501 2.34-1.04 2.76-1.24 2.77-2.25 0.0505zm6.49-0.169c0-1.36 0.0758-2.23 0.194-2.23 0.118 0 0.194 0.871 0.194 2.23s-0.0758 2.23-0.194 2.23c-0.118 0-0.194-0.871-0.194-2.23zm4.39 0.339c0.381-1.04 0.737-2.04 0.791-2.24 0.0615-0.216 0.246-0.327 0.483-0.29 0.348 0.053 0.952 1.42 1.81 4.08 0.172 0.536-0.404 0.408-0.656-0.145-0.191-0.42-0.346-0.484-1.16-0.484-0.816 0-0.97 0.0644-1.16 0.484-0.121 0.266-0.349 0.484-0.507 0.484-0.225 0-0.138-0.405 0.406-1.89zm1.99 0.29c-0.0083-0.133-0.168-0.677-0.355-1.21l-0.34-0.968-0.419 1.12c-0.23 0.616-0.419 1.16-0.419 1.21 0 0.0492 0.348 0.0895 0.774 0.0895 0.498 0 0.769-0.0862 0.759-0.242zm5.4 1.27c-0.662-0.41-0.934-1.02-0.934-2.08 0-0.688 0.112-0.959 0.596-1.44 0.791-0.791 2.18-0.85 3.02-0.128 0.565 0.486 0.483 0.955-0.0953 0.542-1.21-0.864-2.27-0.714-2.81 0.397-0.489 0.996-0.175 2 0.746 2.38 1 0.419 2.22-0.167 2.22-1.07 0-0.116-0.384-0.206-0.871-0.206-0.479 0-0.871-0.0871-0.871-0.194 0-0.108 0.516-0.194 1.16-0.194 1.02 0 1.16 0.045 1.16 0.378 0 1.52-1.95 2.47-3.32 1.61zm6.81-1.9v-2.23h1.16c1.38 0 1.57 0.34 0.242 0.425-0.911 0.0584-0.92 0.066-0.98 0.785l-0.0601 0.726h0.883c1.11 0 1.16 0.345 0.0601 0.424-0.821 0.0594-0.823 0.0613-0.823 0.834v0.774l0.92 0.059c1.33 0.0851 1.13 0.425-0.242 0.425h-1.16zm5.81 0c0-1.75 0.0566-2.23 0.263-2.23 0.145 0 0.798 0.806 1.45 1.79l1.19 1.79 1e-3 -1.79c9.8e-4 -1.46 0.0545-1.79 0.292-1.79 0.241 0 0.29 0.376 0.29 2.23 0 2.88-0.215 2.93-1.84 0.43l-1.16-1.78-0.0557 1.79c-0.0806 2.59-0.428 2.24-0.428-0.436zm7.36 1.84c-0.213-0.213-0.387-0.474-0.387-0.581 0-0.327 0.476-0.215 0.826 0.194 0.415 0.484 0.952 0.495 1.38 0.028 0.48-0.53 0.217-0.913-0.903-1.32-1.21-0.436-1.56-1.08-1.04-1.89 0.268-0.409 0.478-0.499 1.16-0.499 0.765 0 1.48 0.404 1.48 0.838 0 0.242-0.532 0.132-0.774-0.16-0.307-0.37-1.04-0.375-1.35-0.0093-0.397 0.478-0.0584 0.998 0.819 1.26 0.451 0.134 0.928 0.332 1.06 0.44 0.364 0.297 0.295 1.4-0.112 1.77-0.497 0.45-1.68 0.413-2.16-0.0668zm-91.8-4.63c0-0.104 0.186-0.32 0.413-0.479 0.367-0.257 0.464-0.256 0.871 0.0113 0.595 0.39 0.594 0.696-0.0011 0.425-0.334-0.152-0.572-0.149-0.871 0.011-0.247 0.132-0.412 0.145-0.412 0.0309zm19.9-17.4v-15h6.2v2.59l0.699-0.817c2.62-3.06 8.36-2.66 11.8 0.828 2.12 2.16 3.25 4.98 3.25 8.15 0 3.19-1.13 6.01-3.27 8.16-3.48 3.48-9.15 3.88-11.8 0.82l-0.699-0.817v11.1h-6.2zm13.1 0.517c2.13-1.08 3.23-3.81 2.51-6.24-0.607-2.08-2.14-3.26-4.41-3.42-3.6-0.258-5.82 2.93-4.7 6.75 0.495 1.68 1.35 2.62 2.94 3.21 0.952 0.355 2.67 0.222 3.66-0.284zm49.4-0.517v-15h6.39v2.16l0.496-0.589c0.806-0.958 2.76-1.81 4.4-1.91 4.64-0.298 8.61 2.66 10.3 7.7 0.513 1.51 0.511 5.28-3e-3 6.78-1.38 4.02-4.28 6.83-7.81 7.56-2.48 0.516-5.37-0.196-6.76-1.67l-0.65-0.69v10.7h-6.39zm13.1 0.378c1.71-0.854 2.57-2.43 2.57-4.71-5e-3 -1.58-0.426-2.58-1.49-3.53-0.973-0.877-1.95-1.22-3.44-1.21-1.41 0.0105-2.51 0.522-3.37 1.57-0.744 0.902-0.98 1.71-0.982 3.36-2e-3 2.15 0.728 3.59 2.28 4.48 1.27 0.733 3.02 0.749 4.45 0.0405zm-28.7 6.45c-0.162-0.0906-0.375-0.115-0.473-0.0542-0.0983 0.0607-0.237 0.016-0.308-0.0995-0.0714-0.116-0.255-0.162-0.408-0.103-1.01 0.386 0.181-2.38 1.77-4.12 0.862-0.946 3-2.54 3.41-2.54 0.0843 0 0.344 0.523 0.577 1.16 0.355 0.973 0.498 1.16 0.882 1.16 0.443 0 0.458-0.0504 0.458-1.53 0-1.42 0.0306-1.54 0.436-1.64 0.814-0.218 3.93-0.123 4.99 0.152 1.57 0.406 1.41 0.203-0.228-0.302-1.05-0.323-1.92-0.441-3.31-0.447l-1.89-0.0092-5.7e-5 -1.69c-3.1e-5 -0.932 0.0653-1.69 0.145-1.69 0.522 0.0049 3.48 0.838 4.43 1.25 0.627 0.271 0.974 0.365 0.772 0.209-0.557-0.43-2.98-1.39-4.23-1.68l-1.11-0.256v-0.92c0-0.866 0.0735-0.998 1.25-2.25 0.688-0.729 1.34-1.56 1.45-1.86 0.274-0.721 0.254-1.47-0.0406-1.5-1.01-0.0932-1.86 0.361-3.35 1.79l-1.18 1.13-4.63 0.052c-4.11 0.0461-4.64 0.0878-4.69 0.369-0.0468 0.244 0.588 0.575 2.76 1.44 1.64 0.652 2.82 1.23 2.82 1.38 0 0.141-0.16 0.256-0.356 0.256-1.64 0-6.01 1.81-7.91 3.27l-1.01 0.776-0.15-0.718c-0.228-1.09-0.166-3.69 0.117-4.88 0.968-4.09 4.43-7.55 8.54-8.54 1.65-0.4 4.31-0.323 5.9 0.171 5.05 1.56 8.53 6.56 8.16 11.7-0.127 1.74-0.476 3.26-0.748 3.26-0.105 0-0.141 0.131-0.0799 0.29s0.034 0.29-0.0607 0.29-0.23 0.261-0.3 0.581c-0.0702 0.32-0.213 0.581-0.317 0.581s-0.136 0.0871-0.07 0.194c0.0658 0.106 0.0274 0.194-0.0854 0.194s-0.205 0.131-0.205 0.29-0.0899 0.29-0.2 0.29-0.248 0.127-0.308 0.283c-0.141 0.368-1.81 2.04-2.04 2.04-0.0958 0-0.224 0.131-0.286 0.29s-0.233 0.29-0.381 0.29-0.27 0.068-0.27 0.151c0 0.083-0.436 0.32-0.968 0.527-0.532 0.207-0.968 0.444-0.968 0.527 0 0.083-0.0653 0.141-0.145 0.128-0.0799-0.0126-0.189-0.0059-0.242 0.0148-0.16 0.0623-0.845 0.217-1.26 0.283-0.213 0.0344-0.387 0.0859-0.387 0.114 0 0.14-4 0.0904-4.26-0.0524zm-82.6-0.601c-1.85-0.499-3.04-1.67-3.78-3.7-0.296-0.818-0.363-1.77-0.43-6.15l-0.0795-5.18h-2.48v-6.2h2.52v-6h6.2v6h5.62v6.2h-5.64l0.0632 3.73c0.0562 3.32 0.105 3.79 0.442 4.29 0.554 0.818 1.39 1.09 3.39 1.09h1.75v6.2l-3.34-0.0131c-1.99-0.0078-3.7-0.109-4.22-0.251zm9.69-10.5v-10.8h6.2v3.56l0.548-0.865c1.38-2.17 3.9-3.28 6.8-2.99l1.3 0.131-0.444 2.94c-0.244 1.62-0.448 2.98-0.452 3.03-0.0042 0.0532-0.952 0.0677-2.1 0.0321-2.39-0.0736-3.43 0.14-4.31 0.885-1.28 1.08-1.33 1.37-1.33 8.42l-0.0043 6.34h-6.2zm16.5 0v-10.8h6.2v21.5h-6.2zm39.1 10.6c-0.972-0.296-1.71-0.793-2.48-1.66-1.38-1.56-1.46-2-1.54-8.08l-0.0726-5.37h-2.49v-6.2h2.52v-6h6.39v6h5.42v6.2h-5.42l0.0029 3.63c0.0031 3.91 0.0758 4.26 1.02 4.96 0.437 0.324 0.901 0.414 2.47 0.477l1.93 0.0776v6.15l-3.63-0.0166c-2-0.0092-3.85-0.0831-4.12-0.164zm13.3-0.991c-1.29-0.819-2.8-2.38-3.64-3.76-1-1.66-0.993-1.77 0.174-2.73l1.01-0.826 1.51 0.64c1.38 0.585 1.51 0.683 1.46 1.15-0.0337 0.307 0.043 0.516 0.194 0.528 0.137 0.0113 0.414 0.0331 0.616 0.0484 0.264 0.02 0.5 0.379 0.842 1.29 0.46 1.22 0.465 1.28 0.14 1.84-0.185 0.32-0.546 0.995-0.804 1.5-0.258 0.506-0.49 0.92-0.517 0.92-0.0268 0-0.468-0.266-0.981-0.591zm2.99-4.16v-1.3l1.29-1.44c1.45-1.62 2-2.05 2.44-1.88 0.252 0.0967 1.11 1.96 1.11 2.4 0 0.0824-0.547 0.419-1.22 0.748-0.668 0.329-1.76 1.09-2.42 1.69l-1.2 1.09zm-4.93-3.38c0.29-0.469 4.56-2.32 5.36-2.32 0.133 0-0.319 0.566-1 1.26l-1.25 1.26h-1.61c-1.05 0-1.57-0.069-1.49-0.198zm-48.6-14.9c-2.13-0.984-2.8-3.36-1.46-5.2 1.77-2.45 5.35-1.68 6.22 1.34 0.385 1.34-0.591 3.21-2.02 3.86-1 0.457-1.75 0.458-2.73 0.0045z" fill="#7d8ea3"/><path d="m47 64.9v-15h6.2v2.59l0.699-0.817c2.62-3.06 8.36-2.66 11.8 0.828 2.12 2.16 3.25 4.98 3.25 8.15 0 3.19-1.13 6.01-3.27 8.16-3.48 3.48-9.15 3.88-11.8 0.82l-0.699-0.817v11.1h-6.2zm13.1 0.517c2.13-1.08 3.23-3.81 2.51-6.24-0.607-2.08-2.14-3.26-4.41-3.42-3.6-0.258-5.82 2.93-4.7 6.75 0.495 1.68 1.35 2.62 2.94 3.21 0.952 0.355 2.67 0.222 3.66-0.284zm49.4-0.517v-15h6.2v2.39l0.88-0.892c1.28-1.3 2.6-1.77 4.93-1.75 2.93 0.0174 4.99 0.947 7.06 3.18 1.76 1.9 3.01 5.16 3.01 7.82 0 2.64-1.23 5.84-3.01 7.8-1.99 2.2-4.12 3.18-6.96 3.21-2.31 0.0244-3.5-0.384-4.81-1.64-0.539-0.519-1.01-0.944-1.04-0.944-0.0329 0-0.0599 2.44-0.0599 5.42v5.42h-6.2zm12.3 0.779c2.13-0.632 3.43-2.54 3.44-5.04 7e-3 -1.17-0.0763-1.51-0.588-2.42-0.726-1.29-1.76-2.05-3.17-2.35-2.29-0.478-4.22 0.388-5.17 2.32-0.453 0.925-0.537 1.34-0.526 2.59 0.0103 1.26 0.103 1.67 0.582 2.61 1.08 2.12 3.12 2.98 5.43 2.29zm-26.9 6.16c-0.213-0.043-0.894-0.177-1.51-0.297-1.08-0.21-1.12-0.24-1-0.722 0.208-0.836 1.28-2.58 2.22-3.58 0.798-0.862 2.94-2.44 3.32-2.44 0.0843 0 0.344 0.523 0.577 1.16 0.355 0.973 0.498 1.16 0.882 1.16 0.443 0 0.458-0.0497 0.458-1.54v-1.54l0.694-0.13c0.972-0.182 4.48 0.0309 5.37 0.326 0.652 0.217 0.724 0.302 0.617 0.729-0.45 1.79-3.14 4.65-5.41 5.74-1.94 0.932-4.71 1.44-6.21 1.14zm-83.6-0.722c-1.85-0.499-3.04-1.67-3.78-3.7-0.296-0.818-0.363-1.77-0.43-6.15l-0.0795-5.18h-2.48v-6.2h2.52v-6h6.2v6h5.62v6.2h-5.64l0.0632 3.73c0.0562 3.32 0.105 3.79 0.442 4.29 0.554 0.818 1.39 1.09 3.39 1.09h1.75v6.2l-3.34-0.0131c-1.99-0.0078-3.7-0.109-4.22-0.251zm9.69-10.5v-10.8h6.2v3.56l0.548-0.865c1.38-2.17 3.9-3.28 6.8-2.99l1.3 0.131-0.444 2.94c-0.244 1.62-0.448 2.98-0.452 3.03-0.0042 0.0532-0.952 0.0677-2.1 0.0321-2.39-0.0736-3.43 0.14-4.31 0.885-1.28 1.08-1.33 1.37-1.33 8.42l-0.0043 6.34h-6.2zm16.5 0v-10.8h6.2v21.5h-6.2zm38.8 10.4c-1.28-0.394-2.64-1.77-3.23-3.28-0.43-1.09-0.459-1.44-0.528-6.43l-0.073-5.28h-2.48v-6.2h2.52v-6h6.2v6h5.62v6.2h-5.62l0.0011 3.24c0.0012 3.67 0.136 4.38 0.978 5.19 0.568 0.545 0.683 0.573 2.62 0.636l2.02 0.066v6.16l-3.53-0.0135c-2.55-0.0097-3.8-0.0938-4.47-0.302zm13.4-1.03c-1.74-1.16-4.24-4.25-4.24-5.24 0-0.275 0.929-1.16 1.7-1.62 0.146-0.0875 0.891 0.107 1.78 0.464 1.4 0.562 1.52 0.659 1.49 1.13-0.0295 0.444 0.0367 0.512 0.474 0.483 0.457-0.0298 0.56 0.1 1.03 1.3l0.524 1.34-0.378 0.536c-0.208 0.295-0.565 0.906-0.794 1.36-0.229 0.453-0.487 0.823-0.573 0.823-0.0861 0-0.542-0.256-1.01-0.57zm3.11-4v-1.34l1.6-1.59c0.881-0.876 1.76-1.59 1.94-1.59 0.218 0 0.47 0.299 0.694 0.823 0.649 1.52 0.662 1.65 0.174 1.8-0.823 0.25-2.57 1.42-3.49 2.33l-0.92 0.912zm12.5-2.18c-1.1-0.387-1.75-0.48-3.44-0.492l-2.08-0.0153-0.00189-3.24 0.945 0.125c1.19 0.158 3.24 0.85 4.86 1.65 0.692 0.339 1.08 0.475 0.871 0.302-1.01-0.818-3.94-2.06-6.44-2.72-0.146-0.039-0.242-0.395-0.242-0.901 0-0.742 0.102-0.935 0.895-1.7 0.492-0.475 1.15-1.25 1.45-1.72 0.604-0.934 0.747-2.08 0.28-2.26-0.512-0.196-2.12 0.703-3.33 1.87l-1.2 1.16h-4.68c-4.64 0-4.68 0.0036-4.62 0.405 0.0493 0.322 0.611 0.628 2.76 1.5 1.48 0.603 2.73 1.19 2.77 1.31 0.0413 0.129-0.317 0.267-0.887 0.343-2.05 0.272-5.11 1.56-7.19 3.04-1.04 0.738-1.06 0.745-1.22 0.332-0.266-0.719-0.172-4.05 0.149-5.27 1.02-3.85 4.31-7.14 8.14-8.14 1.46-0.381 4.33-0.379 5.8 0.0029 2.04 0.531 3.56 1.42 5.14 2.99 2.75 2.75 3.89 6.29 3.21 10-0.16 0.894-0.362 1.68-0.448 1.75-0.0858 0.0689-0.766-0.0892-1.51-0.351zm-16.1-1.9c1.14-0.583 3.78-1.61 4.14-1.61 0.0579 0-0.412 0.523-1.04 1.16l-1.15 1.16-3.3-0.019zm-50-14.2c-2.13-0.984-2.8-3.36-1.46-5.2 1.77-2.45 5.35-1.68 6.22 1.34 0.385 1.34-0.591 3.21-2.02 3.86-1 0.457-1.75 0.458-2.73 0.0045z" fill="#1d9fd8"/><path d="m47 64.9v-15h6.2v2.59l0.699-0.817c2.62-3.06 8.36-2.66 11.8 0.828 2.12 2.16 3.25 4.98 3.25 8.15 0 3.19-1.13 6.01-3.27 8.16-3.48 3.48-9.15 3.88-11.8 0.82l-0.699-0.817v11.1h-6.2zm13.1 0.517c2.13-1.08 3.23-3.81 2.51-6.24-0.607-2.08-2.14-3.26-4.41-3.42-3.6-0.258-5.82 2.93-4.7 6.75 0.495 1.68 1.35 2.62 2.94 3.21 0.952 0.355 2.67 0.222 3.66-0.284zm49.4-0.517v-15h6.2v2.39l0.88-0.892c1.28-1.3 2.6-1.77 4.93-1.75 2.93 0.0174 4.99 0.947 7.06 3.18 1.76 1.9 3.01 5.16 3.01 7.82 0 2.64-1.23 5.84-3.01 7.8-1.99 2.2-4.12 3.18-6.96 3.21-2.31 0.0244-3.5-0.384-4.81-1.64-0.539-0.519-1.01-0.944-1.04-0.944-0.0329 0-0.0599 2.44-0.0599 5.42v5.42h-6.2zm12.3 0.779c2.13-0.632 3.43-2.54 3.44-5.04 7e-3 -1.17-0.0763-1.51-0.588-2.42-0.726-1.29-1.76-2.05-3.17-2.35-2.29-0.478-4.22 0.388-5.17 2.32-0.453 0.925-0.537 1.34-0.526 2.59 0.0103 1.26 0.103 1.67 0.582 2.61 1.08 2.12 3.12 2.98 5.43 2.29zm-26.9 6.16c-0.213-0.043-0.894-0.177-1.51-0.297-1.08-0.21-1.12-0.24-1-0.722 0.208-0.836 1.28-2.58 2.22-3.58 0.798-0.862 2.94-2.44 3.32-2.44 0.0843 0 0.344 0.523 0.577 1.16 0.355 0.973 0.498 1.16 0.882 1.16 0.443 0 0.458-0.0504 0.458-1.53 0-1.42 0.0306-1.54 0.436-1.64 0.84-0.225 3.95-0.119 5.07 0.173 1.36 0.354 1.6 0.268 0.453-0.163-1.38-0.519-2.49-0.703-4.26-0.708l-1.69-0.0047v-1.55c0-1.81-0.103-1.76 2.24-1.16 1.79 0.458 5.11 2.02 5.11 2.4 0 0.55-1.02 2.93-1.68 3.92-0.98 1.48-2.84 3.08-4.48 3.87-1.87 0.899-4.66 1.4-6.14 1.1zm-83.6-0.722c-1.85-0.499-3.04-1.67-3.78-3.7-0.296-0.818-0.363-1.77-0.43-6.15l-0.0795-5.18h-2.48v-6.2h2.52v-6h6.2v6h5.62v6.2h-5.64l0.0632 3.73c0.0562 3.32 0.105 3.79 0.442 4.29 0.554 0.818 1.39 1.09 3.39 1.09h1.75v6.2l-3.34-0.0131c-1.99-0.0078-3.7-0.109-4.22-0.251zm9.69-10.5v-10.8h6.2v3.56l0.548-0.865c1.38-2.17 3.9-3.28 6.8-2.99l1.3 0.131-0.444 2.94c-0.244 1.62-0.448 2.98-0.452 3.03-0.0042 0.0532-0.952 0.0677-2.1 0.0321-2.39-0.0736-3.43 0.14-4.31 0.885-1.28 1.08-1.33 1.37-1.33 8.42l-0.0043 6.34h-6.2zm16.5 0v-10.8h6.2v21.5h-6.2zm38.8 10.4c-1.28-0.394-2.64-1.77-3.23-3.28-0.43-1.09-0.459-1.44-0.528-6.43l-0.073-5.28h-2.48v-6.2h2.52v-6h6.2v6h5.62v6.2h-5.62l0.0011 3.24c0.0012 3.67 0.136 4.38 0.978 5.19 0.568 0.545 0.683 0.573 2.62 0.636l2.02 0.066v6.16l-3.53-0.0135c-2.55-0.0097-3.8-0.0938-4.47-0.302zm13.3-1.16c-1.35-0.914-2.72-2.45-3.49-3.89-0.344-0.646-0.626-1.25-0.626-1.35 0-0.0963 0.426-0.5 0.946-0.896l0.946-0.721 1.53 0.599c1.38 0.542 1.53 0.648 1.52 1.12-0.0055 0.436 0.0718 0.514 0.486 0.488 0.436-0.0274 0.55 0.116 0.996 1.26l0.504 1.29-0.39 0.642c-0.215 0.353-0.556 0.985-0.758 1.4-0.202 0.419-0.431 0.758-0.508 0.753-0.0774-0.0044-0.597-0.318-1.15-0.696zm3.43-4.19v-1.21l1.5-1.5c0.828-0.823 1.66-1.5 1.85-1.5 0.217 0 0.47 0.299 0.694 0.823 0.677 1.58 0.686 1.54-0.524 2.12-0.606 0.288-1.64 0.962-2.31 1.5l-1.21 0.977zm-4.84-3.14c0-0.252 4.11-2.04 4.69-2.04 0.127 0-0.242 0.479-0.821 1.06l-1.05 1.06h-1.41c-0.776 0-1.41-0.0421-1.41-0.0935zm-48.9-14.8c-2.13-0.984-2.8-3.36-1.46-5.2 1.77-2.45 5.35-1.68 6.22 1.34 0.385 1.34-0.591 3.21-2.02 3.86-1 0.457-1.75 0.458-2.73 0.0045z" fill="#ef7d11"/><path d="m110 64.9v-15h6.2v2.39l0.88-0.892c1.28-1.3 2.6-1.77 4.93-1.75 2.93 0.0174 4.99 0.947 7.06 3.18 1.76 1.9 3.01 5.16 3.01 7.82 0 2.64-1.23 5.84-3.01 7.8-1.99 2.2-4.12 3.18-6.96 3.21-2.31 0.0244-3.5-0.384-4.81-1.64-0.539-0.519-1.01-0.944-1.04-0.944-0.0329 0-0.0599 2.44-0.0599 5.42v5.42h-6.2zm12.3 0.779c2.13-0.632 3.43-2.54 3.44-5.04 7e-3 -1.17-0.0763-1.51-0.588-2.42-0.726-1.29-1.76-2.05-3.17-2.35-2.29-0.478-4.22 0.388-5.17 2.32-0.453 0.925-0.537 1.34-0.526 2.59 0.0103 1.26 0.103 1.67 0.582 2.61 1.08 2.12 3.12 2.98 5.43 2.29zm-45.5 5.39c-1.28-0.394-2.64-1.77-3.23-3.28-0.43-1.09-0.459-1.44-0.528-6.43l-0.073-5.28h-2.48v-6.2h2.52v-6h6.2v6h5.62v6.2h-5.62l0.0011 3.24c0.0012 3.67 0.136 4.38 0.978 5.19 0.568 0.545 0.683 0.573 2.62 0.636l2.02 0.066v6.16l-3.53-0.0135c-2.55-0.0097-3.8-0.0938-4.47-0.302zm13.3-1.16c-1.35-0.914-2.72-2.45-3.49-3.89-0.344-0.646-0.626-1.25-0.626-1.35 0-0.0963 0.426-0.5 0.946-0.896l0.946-0.721 1.53 0.599c1.38 0.542 1.53 0.648 1.52 1.12-0.0055 0.436 0.0718 0.514 0.486 0.488 0.436-0.0274 0.55 0.116 0.996 1.26l0.504 1.29-0.39 0.642c-0.215 0.353-0.556 0.985-0.758 1.4-0.202 0.419-0.431 0.758-0.508 0.753-0.0774-0.0044-0.597-0.318-1.15-0.696zm3.43-4.19v-1.21l1.5-1.5c0.828-0.823 1.66-1.5 1.85-1.5 0.217 0 0.47 0.299 0.694 0.823 0.677 1.58 0.686 1.54-0.524 2.12-0.606 0.288-1.64 0.962-2.31 1.5l-1.21 0.977zm12.9-1.69c-1.21-0.523-2.66-0.775-4.45-0.775h-1.64v-1.55c0-1.38 0.04-1.55 0.356-1.55 0.872 0 3.57 0.857 5.21 1.65 1.88 0.916 1.99 1.06 1.54 2.05l-0.233 0.509zm-17.7-1.45c0-0.252 4.11-2.04 4.69-2.04 0.127 0-0.242 0.479-0.821 1.06l-1.05 1.06h-1.41c-0.776 0-1.41-0.0421-1.41-0.0935z" fill="#61b454"/><path d="m89.7 69.9c-1.35-0.914-2.72-2.45-3.49-3.89-0.344-0.646-0.626-1.25-0.626-1.35 0-0.0963 0.426-0.5 0.946-0.896l0.946-0.721 1.53 0.599c1.38 0.542 1.53 0.648 1.52 1.12-0.0055 0.436 0.0718 0.514 0.486 0.488 0.436-0.0274 0.55 0.116 0.996 1.26l0.504 1.29-0.39 0.642c-0.215 0.353-0.556 0.985-0.758 1.4-0.202 0.419-0.431 0.758-0.508 0.753-0.0774-0.0044-0.597-0.318-1.15-0.696zm3.43-4.19v-1.21l1.5-1.5c0.828-0.823 1.66-1.5 1.85-1.5 0.217 0 0.47 0.299 0.694 0.823 0.677 1.58 0.686 1.54-0.524 2.12-0.606 0.288-1.64 0.962-2.31 1.5l-1.21 0.977zm12.9-1.69c-1.21-0.523-2.66-0.775-4.45-0.775h-1.64v-1.55c0-1.38 0.04-1.55 0.356-1.55 0.872 0 3.57 0.857 5.21 1.65 1.88 0.916 1.99 1.06 1.54 2.05l-0.233 0.509zm-17.7-1.45c0-0.252 4.11-2.04 4.69-2.04 0.127 0-0.242 0.479-0.821 1.06l-1.05 1.06h-1.41c-0.776 0-1.41-0.0421-1.41-0.0935z" fill="#1174ba"/></g></svg>