<svg id="svg1" width="512" height="512" version="1.1" viewBox="0 0 135.5 135.5" xml:space="preserve" xmlns="http://www.w3.org/2000/svg"><g id="layer1"><g id="g229022" transform="translate(.02338 .8053)"><path id="path229027" d="m12.87 85.39c0.3806-1.038 0.7367-2.045 0.7913-2.237 0.06151-0.216 0.2457-0.3267 0.4831-0.2904 0.3476 0.05305 0.952 1.417 1.806 4.076 0.1721 0.5357-0.4043 0.4082-0.6565-0.1452-0.1912-0.4197-0.3457-0.484-1.162-0.484-0.816 0-0.9705 0.06436-1.162 0.484-0.1213 0.2662-0.3493 0.484-0.5067 0.484-0.2248 0-0.1377-0.4051 0.4057-1.888zm1.987 0.2904c-0.0083-0.1331-0.1682-0.6774-0.3554-1.21l-0.3404-0.9676-0.4191 1.12c-0.2305 0.616-0.4191 1.16-0.4191 1.21 0 0.04925 0.3485 0.08954 0.7744 0.08954 0.4985 0 0.7691-0.08624 0.7594-0.242zm5.209 1.266c-0.6615-0.4104-0.9344-1.019-0.9344-2.083 0-0.6879 0.112-0.9593 0.5957-1.443 0.791-0.791 2.185-0.8501 3.024-0.1282 0.5651 0.4864 0.4827 0.9549-0.0953 0.5416-1.208-0.8637-2.268-0.7143-2.813 0.3966-0.4889 0.996-0.1749 1.999 0.7461 2.384 1.002 0.4187 2.222-0.1668 2.222-1.067 0-0.1155-0.3837-0.2063-0.8713-0.2063-0.4792 0-0.8713-0.08713-0.8713-0.1936 0-0.1076 0.5163-0.1936 1.162-0.1936 1.023 0 1.162 0.04505 1.162 0.3781 0 1.525-1.946 2.469-3.325 1.614zm6.81-1.895v-2.227h1.162c1.375 0 1.569 0.3399 0.242 0.425-0.9108 0.05844-0.9202 0.06601-0.9797 0.7851l-0.06009 0.726h0.8829c1.114 0 1.163 0.3447 0.06009 0.4245-0.821 0.0594-0.8229 0.06128-0.8229 0.834v0.7744l0.9197 0.05901c1.327 0.08513 1.133 0.425-0.242 0.425h-1.162zm6.002 0c0-1.747 0.05662-2.227 0.2631-2.227 0.1447 0 0.7976 0.8059 1.451 1.791l1.188 1.791 0.0012-1.791c9.83e-4 -1.462 0.05449-1.791 0.2916-1.791 0.2413 0 0.2904 0.3765 0.2904 2.227 0 2.875-0.215 2.926-1.839 0.4297l-1.162-1.785-0.05567 1.791c-0.0806 2.593-0.4284 2.24-0.4284-0.4356zm7.766 1.956c-0.661-0.3664-0.9746-1.042-0.9825-2.116-0.0057-0.7798 0.08687-1.028 0.5591-1.5 0.4728-0.4728 0.7234-0.5659 1.523-0.5659 0.93 0 1.977 0.5201 1.977 0.9821 0 0.2939-0.3901 0.2054-0.9152-0.2077-0.9585-0.754-2.166-0.3512-2.565 0.8553-0.4691 1.422 0.8119 2.786 2.111 2.248 0.3118-0.1292 0.614-0.3575 0.6716-0.5075 0.1403-0.3657 0.6976-0.3492 0.6976 0.02057 0 0.4319-1.156 1.062-1.936 1.054-0.3727-0.0034-0.8859-0.1215-1.14-0.2626zm6.755-1.956c0-1.355 0.07576-2.227 0.1936-2.227 0.1179 0 0.1936 0.8713 0.1936 2.227s-0.07576 2.227-0.1936 2.227c-0.1179 0-0.1936-0.8713-0.1936-2.227zm4.581 0.3388c0.3806-1.038 0.7367-2.045 0.7913-2.237 0.06151-0.216 0.2457-0.3267 0.4831-0.2904 0.3476 0.05305 0.952 1.417 1.806 4.076 0.1721 0.5357-0.4043 0.4082-0.6565-0.1452-0.1912-0.4197-0.3457-0.484-1.162-0.484s-0.9705 0.06436-1.162 0.484c-0.1213 0.2662-0.3493 0.484-0.5067 0.484-0.2248 0-0.1377-0.4051 0.4057-1.888zm1.987 0.2904c-0.0083-0.1331-0.1682-0.6774-0.3554-1.21l-0.3404-0.9676-0.4191 1.12c-0.2305 0.616-0.4191 1.16-0.4191 1.21 0 0.04925 0.3485 0.08954 0.7744 0.08954 0.4985 0 0.7691-0.08624 0.7594-0.242zm8.921-0.6292v-2.227h1.159c0.9904 0 1.245 0.07729 1.754 0.5324 0.4162 0.3719 0.6264 0.7659 0.6972 1.307 0.2128 1.627-0.7648 2.612-2.594 2.613l-1.016 7.24e-4zm2.662 1.147c1.028-1.16 0.08609-3.077-1.449-2.95l-0.7291 0.06027-0.05711 1.532c-0.03141 0.8425-0.0082 1.659 0.05162 1.815 0.1737 0.4528 1.651 0.1436 2.184-0.457zm4.308-1.147v-2.227h1.162c1.375 0 1.569 0.3399 0.242 0.425-0.9108 0.05844-0.9202 0.06601-0.9798 0.7851l-0.06009 0.726h0.8829c1.114 0 1.163 0.3447 0.06009 0.4245-0.821 0.0594-0.8229 0.06128-0.8229 0.834v0.7744l0.9197 0.05901c1.327 0.08513 1.133 0.425-0.242 0.425h-1.162zm10.74 0.1693c-0.4231-1.14-0.8011-2.154-0.84-2.253-0.03889-0.09897 0.08025-0.1498 0.2648-0.113 0.2246 0.04479 0.5359 0.6217 0.942 1.746 0.3336 0.9236 0.6556 1.728 0.7156 1.787 0.06002 0.05934 0.4036-0.7181 0.7635-1.728 0.3736-1.048 0.7629-1.836 0.9073-1.836 0.3605 0 0.3369 0.1105-0.5009 2.345-1.036 2.764-1.244 2.768-2.252 0.05049zm6.491-0.1693c0-1.355 0.07576-2.227 0.1936-2.227 0.1179 0 0.1936 0.8713 0.1936 2.227s-0.07576 2.227-0.1936 2.227c-0.1179 0-0.1936-0.8713-0.1936-2.227zm4.387 0.3388c0.3806-1.038 0.7367-2.045 0.7913-2.237 0.06151-0.216 0.2457-0.3267 0.4831-0.2904 0.3476 0.05305 0.952 1.417 1.806 4.076 0.1721 0.5357-0.4043 0.4082-0.6565-0.1452-0.1912-0.4197-0.3457-0.484-1.162-0.484-0.816 0-0.9705 0.06436-1.162 0.484-0.1213 0.2662-0.3493 0.484-0.5067 0.484-0.2248 0-0.1377-0.4051 0.4057-1.888zm1.987 0.2904c-0.0083-0.1331-0.1682-0.6774-0.3554-1.21l-0.3404-0.9676-0.4191 1.12c-0.2305 0.616-0.4191 1.16-0.4191 1.21 0 0.04925 0.3485 0.08954 0.7744 0.08954 0.4985 0 0.7691-0.08624 0.7594-0.242zm5.402 1.266c-0.6615-0.4104-0.9344-1.019-0.9344-2.083 0-0.6879 0.112-0.9593 0.5957-1.443 0.791-0.791 2.185-0.8501 3.024-0.1282 0.5651 0.4864 0.4827 0.9549-0.0953 0.5416-1.208-0.8637-2.268-0.7143-2.813 0.3966-0.4889 0.996-0.1749 1.999 0.7461 2.384 1.002 0.4187 2.222-0.1668 2.222-1.067 0-0.1155-0.3837-0.2063-0.8713-0.2063-0.4792 0-0.8713-0.08713-0.8713-0.1936 0-0.1076 0.5163-0.1936 1.162-0.1936 1.023 0 1.162 0.04505 1.162 0.3781 0 1.525-1.946 2.469-3.325 1.614zm6.81-1.895v-2.227h1.162c1.375 0 1.569 0.3399 0.242 0.425-0.9108 0.05844-0.9202 0.06601-0.9798 0.7851l-0.0601 0.726h0.8829c1.114 0 1.163 0.3447 0.0601 0.4245-0.821 0.0594-0.8228 0.06128-0.8228 0.834v0.7744l0.9197 0.05901c1.327 0.08513 1.133 0.425-0.242 0.425h-1.162zm5.808 0c0-1.747 0.0566-2.227 0.2631-2.227 0.1447 0 0.7976 0.8059 1.451 1.791l1.188 1.791 1e-3 -1.791c9.8e-4 -1.462 0.0545-1.791 0.2916-1.791 0.2413 0 0.2904 0.3765 0.2904 2.227 0 2.875-0.215 2.926-1.839 0.4297l-1.162-1.785-0.0557 1.791c-0.0806 2.593-0.4284 2.24-0.4284-0.4356zm7.357 1.839c-0.213-0.213-0.3872-0.4744-0.3872-0.5808 0-0.3267 0.4764-0.2151 0.8263 0.1936 0.4148 0.4844 0.9519 0.4953 1.375 0.028 0.48-0.5304 0.2171-0.9134-0.9032-1.316-1.211-0.4355-1.565-1.082-1.035-1.891 0.2679-0.4089 0.4781-0.499 1.164-0.499 0.7651 0 1.478 0.4042 1.478 0.8381 0 0.242-0.5319 0.1318-0.7744-0.1605-0.3068-0.3697-1.044-0.3748-1.348-0.0093-0.3967 0.478-0.0584 0.9978 0.8188 1.258 0.4506 0.1337 0.9281 0.332 1.061 0.4405 0.3645 0.2972 0.2947 1.398-0.112 1.766-0.4969 0.4497-1.683 0.413-2.163-0.0668zm-91.77-4.629c0-0.1042 0.1857-0.3196 0.4128-0.4786 0.3671-0.2571 0.4635-0.2559 0.8713 0.01129 0.5947 0.3897 0.594 0.6965-0.0011 0.4254-0.3336-0.152-0.5724-0.149-0.8713 0.01096-0.2474 0.1324-0.4117 0.1447-0.4117 0.0309zm19.94-17.35v-15h6.389v2.143l0.5756-0.6556c0.8858-1.009 2.694-1.735 4.573-1.836 4.613-0.2484 8.772 3.023 10.17 7.996 0.4095 1.461 0.3559 5.154-0.09411 6.486-1.669 4.941-5.594 7.943-10.07 7.707-1.868-0.09855-3.498-0.7569-4.498-1.818l-0.6505-0.6897v10.68h-6.389zm13.13 0.3679c1.676-0.8353 2.554-2.457 2.547-4.705-0.0052-1.571-0.4276-2.573-1.489-3.53-0.9727-0.877-1.951-1.221-3.444-1.21-1.947 0.0145-3.609 1.204-4.135 2.962-0.2852 0.9521-0.2834 2.957 0.0037 3.915 0.2817 0.9401 1.338 2.191 2.264 2.68 1.088 0.5746 2.975 0.5244 4.254-0.1131zm49.41-0.3679v-15h6.389v2.159l0.496-0.5894c0.8064-0.9584 2.761-1.807 4.404-1.913 4.644-0.298 8.609 2.66 10.32 7.7 0.5127 1.508 0.511 5.277-3e-3 6.776-1.377 4.016-4.281 6.827-7.811 7.561-2.485 0.5165-5.366-0.196-6.758-1.671l-0.6505-0.6897v10.68h-6.389zm13.11 0.3778c1.714-0.8541 2.574-2.432 2.566-4.71-5e-3 -1.576-0.4265-2.576-1.489-3.534-0.9728-0.877-1.951-1.221-3.444-1.21-1.411 0.0105-2.51 0.5216-3.373 1.568-0.7438 0.9017-0.9803 1.712-0.9817 3.365-2e-3 2.149 0.7284 3.587 2.275 4.48 1.269 0.7331 3.025 0.7491 4.447 0.04052zm-29.33 6.409c-0.5623-0.1362-1.073-0.2983-1.135-0.3604-0.06206-0.06206 0.2222-0.7927 0.6317-1.624 0.8682-1.762 2.703-3.725 4.264-4.561l0.9952-0.5332 0.4844 1.211c0.3506 0.8762 0.5837 1.211 0.8437 1.211 0.3117 0 0.372-0.204 0.456-1.544l0.09681-1.544 0.8713-0.1617c0.4792-0.08894 1.612-0.1217 2.517-0.07277 1.251 0.06762 1.506 0.04313 1.065-0.1022-0.3195-0.1051-1.474-0.2051-2.565-0.2222l-1.984-0.0311-1.38e-4 -1.694c-7.5e-5 -0.9318 0.06521-1.693 0.1451-1.693 0.5222 0.0049 3.481 0.8385 4.427 1.247 0.6268 0.2709 0.9744 0.3649 0.7723 0.209-0.557-0.4298-2.977-1.389-4.231-1.677l-1.113-0.2557v-0.9204c0-0.8663 0.0735-0.9983 1.251-2.246 0.6879-0.7292 1.341-1.564 1.452-1.856 0.274-0.7206 0.2537-1.468-0.0406-1.495-1.012-0.09325-1.863 0.3613-3.352 1.791l-1.175 1.129-4.631 0.05199c-4.108 0.04611-4.638 0.08779-4.692 0.3686-0.04685 0.2437 0.5884 0.5752 2.756 1.438 1.639 0.6525 2.817 1.229 2.817 1.377 0 0.1406-0.1603 0.2557-0.3563 0.2557-1.635 0-6.009 1.809-7.913 3.273l-1.009 0.7759-0.1498-0.7176c-0.228-1.092-0.1659-3.687 0.1167-4.88 0.9679-4.086 4.426-7.546 8.538-8.541 1.652-0.3999 4.307-0.323 5.905 0.1712 6.024 1.863 9.503 8.336 7.728 14.38-1.081 3.681-4.38 6.848-8.143 7.819-1.415 0.365-4.189 0.378-5.641 0.02643zm-82.82-0.7584c-1.176-0.5475-2.45-1.936-2.92-3.183-0.2902-0.7694-0.3539-1.733-0.4154-6.282l-0.07264-5.373h-2.49v-6.196h2.517v-6.002h6.389v6.002h5.421v6.196h-5.421v3.65c0 3.481 0.02054 3.681 0.4423 4.308 0.5678 0.8444 1.384 1.117 3.382 1.131l1.597 0.01093v6.196l-3.727-0.0019c-3.502-0.0018-3.786-0.02933-4.702-0.4561zm10.37-10.29v-10.75h6.389v3.334l0.6405-0.9295c0.7706-1.118 2.139-2.101 3.478-2.499 1.032-0.3063 3.937-0.3963 4.349-0.1346 0.1875 0.1191 0.1481 0.8044-0.182 3.161l-0.4214 3.009-2.435-0.01819c-2.25-0.01681-2.509 0.01947-3.4 0.4763-0.6953 0.3565-1.1 0.7347-1.449 1.355l-0.484 0.8608-0.1205 12.88h-6.366zm16.46 0v-10.75h6.389v21.49h-6.389zm39.3 10.56c-0.9721-0.2957-1.713-0.7929-2.479-1.663-1.375-1.562-1.458-1.998-1.54-8.079l-0.07263-5.373h-2.49v-6.196h2.517v-6.002h6.389v6.002h5.421v6.196h-5.421l0.0029 3.63c0.0031 3.906 0.07582 4.26 1.019 4.96 0.4366 0.3242 0.9008 0.4138 2.469 0.4768l1.931 0.07755v6.151l-3.63-0.01664c-1.997-0.0092-3.849-0.08307-4.116-0.1643zm13.28-0.991c-1.292-0.8191-2.804-2.385-3.636-3.765-1-1.659-0.9933-1.769 0.1738-2.727l1.006-0.8264 1.511 0.6397c1.382 0.5853 1.506 0.6829 1.455 1.147-0.03366 0.3066 0.04303 0.5159 0.1936 0.5283 0.1371 0.01132 0.4144 0.0331 0.6162 0.0484 0.2643 0.02005 0.4997 0.3794 0.8423 1.286 0.4601 1.218 0.4647 1.277 0.1399 1.839-0.1846 0.3195-0.5465 0.9947-0.8041 1.5-0.2577 0.5058-0.4904 0.9197-0.5172 0.9197-0.02679 0-0.4681-0.266-0.9807-0.5911zm2.986-4.163v-1.301l1.291-1.442c1.451-1.621 2.005-2.05 2.435-1.885 0.2521 0.09674 1.114 1.956 1.114 2.403 0 0.08239-0.547 0.4191-1.216 0.7482-0.6685 0.3291-1.758 1.089-2.42 1.689l-1.205 1.09zm-4.934-3.383c0.29-0.4693 4.564-2.319 5.358-2.319 0.1334 0-0.3188 0.5663-1.005 1.258l-1.247 1.258h-1.614c-1.053 0-1.572-0.06899-1.492-0.1984zm-49.03-15.01c-0.4781-0.2866-1.033-0.8545-1.33-1.362-0.4297-0.7332-0.4961-1.038-0.4217-1.935 0.09681-1.167 0.4427-1.758 1.56-2.662 2.225-1.801 5.796 0.265 5.515 3.191-0.2496 2.597-3.119 4.089-5.324 2.768z" fill="#ea9842"/><path id="path229026" d="m12.87 85.39c0.3806-1.038 0.7367-2.045 0.7913-2.237 0.06151-0.216 0.2457-0.3267 0.4831-0.2904 0.3476 0.05305 0.952 1.417 1.806 4.076 0.1721 0.5357-0.4043 0.4082-0.6565-0.1452-0.1912-0.4197-0.3457-0.484-1.162-0.484-0.816 0-0.9705 0.06436-1.162 0.484-0.1213 0.2662-0.3493 0.484-0.5067 0.484-0.2248 0-0.1377-0.4051 0.4057-1.888zm1.987 0.2904c-0.0083-0.1331-0.1682-0.6774-0.3554-1.21l-0.3404-0.9676-0.4191 1.12c-0.2305 0.616-0.4191 1.16-0.4191 1.21 0 0.04925 0.3485 0.08954 0.7744 0.08954 0.4985 0 0.7691-0.08624 0.7594-0.242zm5.209 1.266c-0.6615-0.4104-0.9344-1.019-0.9344-2.083 0-0.6879 0.112-0.9593 0.5957-1.443 0.791-0.791 2.185-0.8501 3.024-0.1282 0.5651 0.4864 0.4827 0.9549-0.0953 0.5416-1.208-0.8637-2.268-0.7143-2.813 0.3966-0.4889 0.996-0.1749 1.999 0.7461 2.384 1.002 0.4187 2.222-0.1668 2.222-1.067 0-0.1155-0.3837-0.2063-0.8713-0.2063-0.4792 0-0.8713-0.08713-0.8713-0.1936 0-0.1076 0.5163-0.1936 1.162-0.1936 1.023 0 1.162 0.04505 1.162 0.3781 0 1.525-1.946 2.469-3.325 1.614zm6.81-1.895v-2.227h1.162c1.375 0 1.569 0.3399 0.242 0.425-0.9108 0.05844-0.9202 0.06601-0.9797 0.7851l-0.06009 0.726h0.8829c1.114 0 1.163 0.3447 0.06009 0.4245-0.821 0.0594-0.8229 0.06128-0.8229 0.834v0.7744l0.9197 0.05901c1.327 0.08513 1.133 0.425-0.242 0.425h-1.162zm6.002 0c0-1.747 0.05662-2.227 0.2631-2.227 0.1447 0 0.7976 0.8059 1.451 1.791l1.188 1.791 0.0012-1.791c9.83e-4 -1.462 0.05449-1.791 0.2916-1.791 0.2413 0 0.2904 0.3765 0.2904 2.227 0 2.875-0.215 2.926-1.839 0.4297l-1.162-1.785-0.05567 1.791c-0.0806 2.593-0.4284 2.24-0.4284-0.4356zm7.766 1.956c-0.661-0.3664-0.9746-1.042-0.9825-2.116-0.0057-0.7798 0.08687-1.028 0.5591-1.5 0.4728-0.4728 0.7234-0.5659 1.523-0.5659 0.93 0 1.977 0.5201 1.977 0.9821 0 0.2939-0.3901 0.2054-0.9152-0.2077-0.9585-0.754-2.166-0.3512-2.565 0.8553-0.4691 1.422 0.8119 2.786 2.111 2.248 0.3118-0.1292 0.614-0.3575 0.6716-0.5075 0.1403-0.3657 0.6976-0.3492 0.6976 0.02057 0 0.4319-1.156 1.062-1.936 1.054-0.3727-0.0034-0.8859-0.1215-1.14-0.2626zm6.755-1.956c0-1.355 0.07576-2.227 0.1936-2.227 0.1179 0 0.1936 0.8713 0.1936 2.227s-0.07576 2.227-0.1936 2.227c-0.1179 0-0.1936-0.8713-0.1936-2.227zm4.581 0.3388c0.3806-1.038 0.7367-2.045 0.7913-2.237 0.06151-0.216 0.2457-0.3267 0.4831-0.2904 0.3476 0.05305 0.952 1.417 1.806 4.076 0.1721 0.5357-0.4043 0.4082-0.6565-0.1452-0.1912-0.4197-0.3457-0.484-1.162-0.484s-0.9705 0.06436-1.162 0.484c-0.1213 0.2662-0.3493 0.484-0.5067 0.484-0.2248 0-0.1377-0.4051 0.4057-1.888zm1.987 0.2904c-0.0083-0.1331-0.1682-0.6774-0.3554-1.21l-0.3404-0.9676-0.4191 1.12c-0.2305 0.616-0.4191 1.16-0.4191 1.21 0 0.04925 0.3485 0.08954 0.7744 0.08954 0.4985 0 0.7691-0.08624 0.7594-0.242zm8.921-0.6292v-2.227h1.159c0.9904 0 1.245 0.07729 1.754 0.5324 0.4162 0.3719 0.6264 0.7659 0.6972 1.307 0.2128 1.627-0.7648 2.612-2.594 2.613l-1.016 7.24e-4zm2.662 1.147c1.028-1.16 0.08609-3.077-1.449-2.95l-0.7291 0.06027-0.05711 1.532c-0.03141 0.8425-0.0082 1.659 0.05162 1.815 0.1737 0.4528 1.651 0.1436 2.184-0.457zm4.308-1.147v-2.227h1.162c1.375 0 1.569 0.3399 0.242 0.425-0.9108 0.05844-0.9202 0.06601-0.9798 0.7851l-0.06009 0.726h0.8829c1.114 0 1.163 0.3447 0.06009 0.4245-0.821 0.0594-0.8229 0.06128-0.8229 0.834v0.7744l0.9197 0.05901c1.327 0.08513 1.133 0.425-0.242 0.425h-1.162zm10.74 0.1693c-0.4231-1.14-0.8011-2.154-0.84-2.253-0.03889-0.09897 0.08025-0.1498 0.2648-0.113 0.2246 0.04479 0.5359 0.6217 0.942 1.746 0.3336 0.9236 0.6556 1.728 0.7156 1.787 0.06002 0.05934 0.4036-0.7181 0.7635-1.728 0.3736-1.048 0.7629-1.836 0.9073-1.836 0.3605 0 0.3369 0.1105-0.5009 2.345-1.036 2.764-1.244 2.768-2.252 0.05049zm6.491-0.1693c0-1.355 0.07576-2.227 0.1936-2.227 0.1179 0 0.1936 0.8713 0.1936 2.227s-0.07576 2.227-0.1936 2.227c-0.1179 0-0.1936-0.8713-0.1936-2.227zm4.387 0.3388c0.3806-1.038 0.7367-2.045 0.7913-2.237 0.06151-0.216 0.2457-0.3267 0.4831-0.2904 0.3476 0.05305 0.952 1.417 1.806 4.076 0.1721 0.5357-0.4043 0.4082-0.6565-0.1452-0.1912-0.4197-0.3457-0.484-1.162-0.484-0.816 0-0.9705 0.06436-1.162 0.484-0.1213 0.2662-0.3493 0.484-0.5067 0.484-0.2248 0-0.1377-0.4051 0.4057-1.888zm1.987 0.2904c-0.0083-0.1331-0.1682-0.6774-0.3554-1.21l-0.3404-0.9676-0.4191 1.12c-0.2305 0.616-0.4191 1.16-0.4191 1.21 0 0.04925 0.3485 0.08954 0.7744 0.08954 0.4985 0 0.7691-0.08624 0.7594-0.242zm5.402 1.266c-0.6615-0.4104-0.9344-1.019-0.9344-2.083 0-0.6879 0.112-0.9593 0.5957-1.443 0.791-0.791 2.185-0.8501 3.024-0.1282 0.5651 0.4864 0.4827 0.9549-0.0953 0.5416-1.208-0.8637-2.268-0.7143-2.813 0.3966-0.4889 0.996-0.1749 1.999 0.7461 2.384 1.002 0.4187 2.222-0.1668 2.222-1.067 0-0.1155-0.3837-0.2063-0.8713-0.2063-0.4792 0-0.8713-0.08713-0.8713-0.1936 0-0.1076 0.5163-0.1936 1.162-0.1936 1.023 0 1.162 0.04505 1.162 0.3781 0 1.525-1.946 2.469-3.325 1.614zm6.81-1.895v-2.227h1.162c1.375 0 1.569 0.3399 0.242 0.425-0.9108 0.05844-0.9202 0.06601-0.9798 0.7851l-0.0601 0.726h0.8829c1.114 0 1.163 0.3447 0.0601 0.4245-0.821 0.0594-0.8228 0.06128-0.8228 0.834v0.7744l0.9197 0.05901c1.327 0.08513 1.133 0.425-0.242 0.425h-1.162zm5.808 0c0-1.747 0.0566-2.227 0.2631-2.227 0.1447 0 0.7976 0.8059 1.451 1.791l1.188 1.791 1e-3 -1.791c9.8e-4 -1.462 0.0545-1.791 0.2916-1.791 0.2413 0 0.2904 0.3765 0.2904 2.227 0 2.875-0.215 2.926-1.839 0.4297l-1.162-1.785-0.0557 1.791c-0.0806 2.593-0.4284 2.24-0.4284-0.4356zm7.357 1.839c-0.213-0.213-0.3872-0.4744-0.3872-0.5808 0-0.3267 0.4764-0.2151 0.8263 0.1936 0.4148 0.4844 0.9519 0.4953 1.375 0.028 0.48-0.5304 0.2171-0.9134-0.9032-1.316-1.211-0.4355-1.565-1.082-1.035-1.891 0.2679-0.4089 0.4781-0.499 1.164-0.499 0.7651 0 1.478 0.4042 1.478 0.8381 0 0.242-0.5319 0.1318-0.7744-0.1605-0.3068-0.3697-1.044-0.3748-1.348-0.0093-0.3967 0.478-0.0584 0.9978 0.8188 1.258 0.4506 0.1337 0.9281 0.332 1.061 0.4405 0.3645 0.2972 0.2947 1.398-0.112 1.766-0.4969 0.4497-1.683 0.413-2.163-0.0668zm-91.77-4.629c0-0.1042 0.1857-0.3196 0.4128-0.4786 0.3671-0.2571 0.4635-0.2559 0.8713 0.01129 0.5947 0.3897 0.594 0.6965-0.0011 0.4254-0.3336-0.152-0.5724-0.149-0.8713 0.01096-0.2474 0.1324-0.4117 0.1447-0.4117 0.0309zm19.94-17.35v-15h6.196v2.587l0.6994-0.817c2.62-3.061 8.356-2.658 11.79 0.8281 2.125 2.158 3.254 4.985 3.254 8.148 0 3.186-1.134 6.011-3.273 8.156-3.477 3.485-9.149 3.881-11.77 0.8202l-0.6994-0.817v11.11h-6.196zm13.1 0.5169c2.127-1.085 3.226-3.814 2.514-6.245-0.6074-2.076-2.135-3.261-4.412-3.425-3.596-0.2581-5.819 2.934-4.699 6.746 0.4951 1.685 1.347 2.615 2.936 3.208 0.952 0.3553 2.668 0.222 3.661-0.2843zm49.44-0.5169v-15h6.389v2.159l0.496-0.5894c0.8064-0.9584 2.761-1.807 4.404-1.913 4.644-0.298 8.609 2.66 10.32 7.7 0.5127 1.508 0.511 5.277-3e-3 6.776-1.377 4.016-4.281 6.827-7.811 7.561-2.485 0.5165-5.366-0.196-6.758-1.671l-0.6505-0.6897v10.68h-6.389zm13.11 0.3778c1.714-0.8541 2.574-2.432 2.566-4.71-5e-3 -1.576-0.4265-2.576-1.489-3.534-0.9728-0.877-1.951-1.221-3.444-1.21-1.411 0.0105-2.51 0.5216-3.373 1.568-0.7438 0.9017-0.9803 1.712-0.9817 3.365-2e-3 2.149 0.7284 3.587 2.275 4.48 1.269 0.7331 3.025 0.7491 4.447 0.04052zm-28.7 6.446c-0.1618-0.09057-0.3747-0.115-0.473-0.05423-0.09829 0.06074-0.2371 0.01596-0.3085-0.09953-0.07137-0.1155-0.2549-0.1619-0.4079-0.1032-1.006 0.3859 0.1812-2.379 1.768-4.12 0.8625-0.9458 3.004-2.544 3.409-2.544 0.08426 0 0.3438 0.5228 0.5768 1.162 0.3548 0.9732 0.4979 1.162 0.8817 1.162 0.443 0 0.4581-0.05037 0.4581-1.526 0-1.419 0.03058-1.535 0.4356-1.643 0.8145-0.2183 3.929-0.1231 4.991 0.1525 1.567 0.4064 1.413 0.203-0.2275-0.302-1.05-0.3231-1.92-0.4406-3.312-0.4474l-1.888-0.0092-5.7e-5 -1.694c-3.1e-5 -0.9318 0.06529-1.693 0.1452-1.693 0.5222 0.0049 3.481 0.8385 4.427 1.247 0.6268 0.2709 0.9744 0.3649 0.7723 0.209-0.557-0.4298-2.977-1.389-4.231-1.677l-1.113-0.2557v-0.9204c0-0.8663 0.0735-0.9983 1.251-2.246 0.6879-0.7292 1.341-1.564 1.452-1.856 0.274-0.7206 0.2537-1.468-0.0406-1.495-1.012-0.09325-1.863 0.3613-3.352 1.791l-1.175 1.129-4.631 0.05199c-4.108 0.04611-4.638 0.08779-4.692 0.3686-0.04685 0.2437 0.5884 0.5752 2.756 1.438 1.639 0.6525 2.817 1.229 2.817 1.377 0 0.1406-0.1603 0.2557-0.3563 0.2557-1.635 0-6.009 1.809-7.913 3.273l-1.009 0.7759-0.1498-0.7176c-0.228-1.092-0.1659-3.687 0.1167-4.88 0.9679-4.086 4.426-7.546 8.538-8.541 1.652-0.3999 4.307-0.323 5.905 0.1712 5.047 1.561 8.533 6.556 8.158 11.69-0.1269 1.737-0.4764 3.262-0.7478 3.262-0.1052 0-0.1412 0.1307-0.0799 0.2904 0.0613 0.1597 0.034 0.2904-0.0607 0.2904s-0.2296 0.2614-0.2997 0.5808c-0.0702 0.3195-0.2129 0.5808-0.3172 0.5808-0.1043 0-0.1358 0.08713-0.07 0.1936 0.0658 0.1065 0.0274 0.1936-0.0854 0.1936-0.1128 0-0.205 0.1307-0.205 0.2904 0 0.1597-0.0899 0.2904-0.1997 0.2904-0.1098 0-0.2485 0.1272-0.3082 0.2827-0.1411 0.3677-1.814 2.041-2.041 2.041-0.0958 0-0.2244 0.1307-0.2857 0.2904-0.0613 0.1597-0.2328 0.2904-0.3812 0.2904s-0.2697 0.06795-0.2697 0.151c0 0.08304-0.4356 0.32-0.9681 0.5267-0.5324 0.2066-0.9681 0.4436-0.9681 0.5267 0 0.08304-0.0653 0.1407-0.1452 0.1281-0.0799-0.01261-0.1888-0.0059-0.242 0.01481-0.1597 0.06227-0.8451 0.2166-1.258 0.2834-0.213 0.0344-0.3872 0.08589-0.3872 0.1144 0 0.1396-4.004 0.0904-4.259-0.05235zm-82.59-0.601c-1.849-0.4986-3.04-1.667-3.778-3.705-0.296-0.8178-0.3627-1.772-0.4299-6.147l-0.07947-5.179h-2.48v-6.196h2.517v-6.002h6.196v6.002h5.615v6.196h-5.644l0.06321 3.727c0.05622 3.315 0.105 3.789 0.4416 4.286 0.5541 0.8184 1.392 1.087 3.391 1.087h1.749v6.196l-3.34-0.01307c-1.988-0.0078-3.696-0.1092-4.221-0.2506zm9.69-10.48v-10.75h6.196v3.561l0.5483-0.8646c1.378-2.173 3.895-3.279 6.796-2.988l1.304 0.131-0.4442 2.936c-0.2443 1.615-0.4477 2.98-0.4519 3.033-0.0042 0.05324-0.9515 0.06771-2.105 0.03214-2.386-0.07355-3.426 0.14-4.311 0.8846-1.281 1.078-1.328 1.372-1.332 8.425l-0.0043 6.341h-6.196zm16.46 0v-10.75h6.196v21.49h-6.196zm39.11 10.56c-0.9721-0.2957-1.713-0.7929-2.479-1.663-1.375-1.562-1.458-1.998-1.54-8.079l-0.07263-5.373h-2.49v-6.196h2.517v-6.002h6.389v6.002h5.421v6.196h-5.421l0.0029 3.63c0.0031 3.906 0.07582 4.26 1.019 4.96 0.4366 0.3242 0.9008 0.4138 2.469 0.4768l1.931 0.07755v6.151l-3.63-0.01664c-1.997-0.0092-3.849-0.08307-4.116-0.1643zm13.28-0.991c-1.292-0.8191-2.804-2.385-3.636-3.765-1-1.659-0.9933-1.769 0.1738-2.727l1.006-0.8264 1.511 0.6397c1.382 0.5853 1.506 0.6829 1.455 1.147-0.03366 0.3066 0.04303 0.5159 0.1936 0.5283 0.1371 0.01132 0.4144 0.0331 0.6162 0.0484 0.2643 0.02005 0.4997 0.3794 0.8423 1.286 0.4601 1.218 0.4647 1.277 0.1399 1.839-0.1846 0.3195-0.5465 0.9947-0.8041 1.5-0.2577 0.5058-0.4904 0.9197-0.5172 0.9197-0.02679 0-0.4681-0.266-0.9807-0.5911zm2.986-4.163v-1.301l1.291-1.442c1.451-1.621 2.005-2.05 2.435-1.885 0.2521 0.09674 1.114 1.956 1.114 2.403 0 0.08239-0.547 0.4191-1.216 0.7482-0.6685 0.3291-1.758 1.089-2.42 1.689l-1.205 1.09zm-4.934-3.383c0.29-0.4693 4.564-2.319 5.358-2.319 0.1334 0-0.3188 0.5663-1.005 1.258l-1.247 1.258h-1.614c-1.053 0-1.572-0.06899-1.492-0.1984zm-48.6-14.88c-2.132-0.9839-2.8-3.357-1.465-5.2 1.774-2.448 5.352-1.679 6.217 1.337 0.3853 1.344-0.5914 3.21-2.019 3.858-1.005 0.4566-1.751 0.4578-2.733 0.0045z" fill="#7d8ea3"/><path id="path229025" d="m47.01 64.92v-15h6.196v2.587l0.6994-0.817c2.62-3.061 8.356-2.658 11.79 0.8281 2.125 2.158 3.254 4.985 3.254 8.148 0 3.186-1.134 6.011-3.273 8.156-3.477 3.485-9.149 3.881-11.77 0.8202l-0.6994-0.817v11.11h-6.196zm13.1 0.5169c2.127-1.085 3.226-3.814 2.514-6.245-0.6074-2.076-2.135-3.261-4.412-3.425-3.596-0.2581-5.819 2.934-4.699 6.746 0.4951 1.685 1.347 2.615 2.936 3.208 0.952 0.3553 2.668 0.222 3.661-0.2843zm49.44-0.5169v-15h6.196v2.387l0.8798-0.8925c1.279-1.297 2.597-1.766 4.929-1.752 2.926 0.01745 4.986 0.9471 7.057 3.185 1.755 1.895 3.01 5.156 3.01 7.818 0 2.642-1.233 5.837-3.011 7.802-1.986 2.195-4.117 3.176-6.96 3.207-2.306 0.0244-3.501-0.3836-4.806-1.642-0.5387-0.5192-1.006-0.944-1.039-0.944-0.0329 0-0.0599 2.44-0.0599 5.421v5.421h-6.196zm12.32 0.7788c2.127-0.6316 3.431-2.541 3.445-5.044 7e-3 -1.169-0.0763-1.51-0.5878-2.42-0.7255-1.291-1.755-2.054-3.169-2.349-2.293-0.4781-4.225 0.3882-5.169 2.319-0.4528 0.9252-0.5366 1.338-0.5262 2.594 0.0103 1.256 0.1026 1.67 0.5815 2.606 1.085 2.122 3.116 2.98 5.426 2.294zm-26.93 6.165c-0.213-0.04295-0.8943-0.1767-1.514-0.2973-1.081-0.2102-1.122-0.2399-1.002-0.7223 0.2081-0.8362 1.284-2.575 2.217-3.583 0.7982-0.8624 2.943-2.438 3.319-2.438 0.08426 0 0.3438 0.5228 0.5768 1.162 0.3548 0.9732 0.4979 1.162 0.8817 1.162 0.4433 0 0.4581-0.04966 0.4581-1.54v-1.54l0.6942-0.1302c0.9724-0.1824 4.482 0.03088 5.368 0.3263 0.6522 0.2173 0.7239 0.302 0.6167 0.7292-0.4497 1.792-3.14 4.646-5.407 5.737-1.938 0.932-4.707 1.439-6.209 1.136zm-83.55-0.7215c-1.849-0.4986-3.04-1.667-3.778-3.705-0.296-0.8178-0.3627-1.772-0.4299-6.147l-0.07947-5.179h-2.48v-6.196h2.517v-6.002h6.196v6.002h5.615v6.196h-5.644l0.06321 3.727c0.05622 3.315 0.105 3.789 0.4416 4.286 0.5541 0.8184 1.392 1.087 3.391 1.087h1.749v6.196l-3.34-0.01307c-1.988-0.0078-3.696-0.1092-4.221-0.2506zm9.69-10.48v-10.75h6.196v3.561l0.5483-0.8646c1.378-2.173 3.895-3.279 6.796-2.988l1.304 0.131-0.4442 2.936c-0.2443 1.615-0.4477 2.98-0.4519 3.033-0.0042 0.05324-0.9515 0.06771-2.105 0.03214-2.386-0.07355-3.426 0.14-4.311 0.8846-1.281 1.078-1.328 1.372-1.332 8.425l-0.0043 6.341h-6.196zm16.46 0v-10.75h6.196v21.49h-6.196zm38.85 10.43c-1.282-0.3936-2.637-1.767-3.234-3.277-0.4302-1.088-0.4589-1.436-0.5279-6.426l-0.07304-5.276h-2.485v-6.196h2.517v-6.002h6.196v6.002h5.615v6.196h-5.615l0.0011 3.243c0.0012 3.667 0.1361 4.383 0.978 5.19 0.5682 0.5448 0.6831 0.5727 2.615 0.6359l2.021 0.06603v6.16l-3.533-0.01349c-2.551-0.0097-3.795-0.09385-4.474-0.3025zm13.41-1.028c-1.736-1.156-4.244-4.254-4.244-5.243 0-0.2754 0.9287-1.16 1.704-1.623 0.1465-0.08748 0.8908 0.1069 1.777 0.464 1.395 0.5622 1.522 0.6586 1.49 1.131-0.02947 0.4442 0.03669 0.5118 0.4736 0.4833 0.4572-0.02979 0.5602 0.1002 1.032 1.303l0.5243 1.336-0.3777 0.536c-0.2077 0.2948-0.5651 0.9063-0.7941 1.359-0.229 0.4526-0.4869 0.8229-0.5729 0.8229-0.08607 0-0.5417-0.2565-1.013-0.57zm3.113-4.003v-1.34l1.601-1.593c0.8807-0.8762 1.755-1.593 1.943-1.593 0.2176 0 0.4696 0.2988 0.694 0.8229 0.6492 1.516 0.6621 1.65 0.1745 1.798-0.8233 0.2505-2.567 1.416-3.493 2.334l-0.9197 0.9121zm12.49-2.18c-1.099-0.3867-1.748-0.4796-3.436-0.492l-2.08-0.01533-0.001886-3.244 0.9446 0.1253c1.193 0.1583 3.237 0.8505 4.864 1.647 0.6922 0.339 1.084 0.475 0.8713 0.3021-1.008-0.8184-3.938-2.058-6.438-2.723-0.1464-0.03895-0.242-0.3952-0.242-0.9014 0-0.7418 0.1018-0.9352 0.8953-1.7 0.4924-0.4747 1.146-1.251 1.452-1.724 0.6044-0.9344 0.7466-2.08 0.2804-2.258-0.512-0.1965-2.115 0.703-3.327 1.867l-1.203 1.156h-4.677c-4.635 0-4.676 0.0036-4.615 0.4047 0.04927 0.3223 0.6113 0.6279 2.759 1.5 1.483 0.6027 2.728 1.193 2.766 1.312 0.04131 0.1289-0.3166 0.2673-0.8867 0.3429-2.053 0.2723-5.108 1.564-7.187 3.039-1.04 0.7377-1.065 0.7446-1.218 0.3319-0.2658-0.7186-0.1717-4.053 0.1487-5.267 1.017-3.854 4.307-7.145 8.142-8.144 1.462-0.3808 4.332-0.3793 5.799 0.0029 2.037 0.5306 3.561 1.418 5.135 2.989 2.754 2.75 3.886 6.292 3.212 10.05-0.1603 0.8939-0.3617 1.682-0.4475 1.751-0.0858 0.06892-0.7659-0.0892-1.511-0.3514zm-16.07-1.9c1.136-0.583 3.777-1.609 4.142-1.609 0.05788 0-0.4121 0.5228-1.044 1.162l-1.15 1.162-3.304-0.019zm-49.95-14.17c-2.132-0.9839-2.8-3.357-1.465-5.2 1.774-2.448 5.352-1.679 6.217 1.337 0.3853 1.344-0.5914 3.21-2.019 3.858-1.005 0.4566-1.751 0.4578-2.733 0.0045z" fill="#1d9fd8"/><path id="path229024" d="m47.01 64.92v-15h6.196v2.587l0.6994-0.817c2.62-3.061 8.356-2.658 11.79 0.8281 2.125 2.158 3.254 4.985 3.254 8.148 0 3.186-1.134 6.011-3.273 8.156-3.477 3.485-9.149 3.881-11.77 0.8202l-0.6994-0.817v11.11h-6.196zm13.1 0.5169c2.127-1.085 3.226-3.814 2.514-6.245-0.6074-2.076-2.135-3.261-4.412-3.425-3.596-0.2581-5.819 2.934-4.699 6.746 0.4951 1.685 1.347 2.615 2.936 3.208 0.952 0.3553 2.668 0.222 3.661-0.2843zm49.44-0.5169v-15h6.196v2.387l0.8798-0.8925c1.279-1.297 2.597-1.766 4.929-1.752 2.926 0.01745 4.986 0.9471 7.057 3.185 1.755 1.895 3.01 5.156 3.01 7.818 0 2.642-1.233 5.837-3.011 7.802-1.986 2.195-4.117 3.176-6.96 3.207-2.306 0.0244-3.501-0.3836-4.806-1.642-0.5387-0.5192-1.006-0.944-1.039-0.944-0.0329 0-0.0599 2.44-0.0599 5.421v5.421h-6.196zm12.32 0.7788c2.127-0.6316 3.431-2.541 3.445-5.044 7e-3 -1.169-0.0763-1.51-0.5878-2.42-0.7255-1.291-1.755-2.054-3.169-2.349-2.293-0.4781-4.225 0.3882-5.169 2.319-0.4528 0.9252-0.5366 1.338-0.5262 2.594 0.0103 1.256 0.1026 1.67 0.5815 2.606 1.085 2.122 3.116 2.98 5.426 2.294zm-26.93 6.165c-0.213-0.04295-0.8943-0.1767-1.514-0.2973-1.081-0.2102-1.122-0.2399-1.002-0.7223 0.2081-0.8362 1.284-2.575 2.217-3.583 0.7982-0.8624 2.943-2.438 3.319-2.438 0.08426 0 0.3438 0.5228 0.5768 1.162 0.3548 0.9732 0.4979 1.162 0.8817 1.162 0.443 0 0.4581-0.05037 0.4581-1.526 0-1.419 0.03058-1.535 0.4356-1.643 0.8403-0.2252 3.947-0.1191 5.069 0.1731 1.36 0.3542 1.599 0.268 0.4531-0.163-1.381-0.5193-2.489-0.7033-4.264-0.7082l-1.694-0.0047v-1.549c0-1.81-0.1026-1.757 2.244-1.157 1.79 0.4577 5.113 2.016 5.113 2.397 0 0.5505-1.016 2.93-1.676 3.923-0.9796 1.476-2.837 3.082-4.48 3.873-1.866 0.8986-4.661 1.401-6.139 1.103zm-83.55-0.7215c-1.849-0.4986-3.04-1.667-3.778-3.705-0.296-0.8178-0.3627-1.772-0.4299-6.147l-0.07947-5.179h-2.48v-6.196h2.517v-6.002h6.196v6.002h5.615v6.196h-5.644l0.06321 3.727c0.05622 3.315 0.105 3.789 0.4416 4.286 0.5541 0.8184 1.392 1.087 3.391 1.087h1.749v6.196l-3.34-0.01307c-1.988-0.0078-3.696-0.1092-4.221-0.2506zm9.69-10.48v-10.75h6.196v3.561l0.5483-0.8646c1.378-2.173 3.895-3.279 6.796-2.988l1.304 0.131-0.4442 2.936c-0.2443 1.615-0.4477 2.98-0.4519 3.033-0.0042 0.05324-0.9515 0.06771-2.105 0.03214-2.386-0.07355-3.426 0.14-4.311 0.8846-1.281 1.078-1.328 1.372-1.332 8.425l-0.0043 6.341h-6.196zm16.46 0v-10.75h6.196v21.49h-6.196zm38.85 10.43c-1.282-0.3936-2.637-1.767-3.234-3.277-0.4302-1.088-0.4589-1.436-0.5279-6.426l-0.07304-5.276h-2.485v-6.196h2.517v-6.002h6.196v6.002h5.615v6.196h-5.615l0.0011 3.243c0.0012 3.667 0.1361 4.383 0.978 5.19 0.5682 0.5448 0.6831 0.5727 2.615 0.6359l2.021 0.06603v6.16l-3.533-0.01349c-2.551-0.0097-3.795-0.09385-4.474-0.3025zm13.29-1.162c-1.346-0.9137-2.723-2.447-3.492-3.888-0.3441-0.6456-0.6256-1.253-0.6256-1.349 0-0.09632 0.4256-0.4997 0.9458-0.8964l0.9458-0.7213 1.529 0.5986c1.385 0.5422 1.529 0.6475 1.523 1.117-0.0055 0.436 0.07183 0.5136 0.4857 0.4876 0.4361-0.02742 0.5497 0.1161 0.9957 1.258l0.5035 1.289-0.3904 0.6424c-0.2147 0.3533-0.556 0.985-0.7582 1.404-0.2023 0.4187-0.4311 0.7577-0.5085 0.7533-0.07738-0.0044-0.5968-0.3175-1.154-0.6958zm3.434-4.19v-1.214l1.505-1.496c0.8276-0.8228 1.658-1.496 1.846-1.496 0.2173 0 0.4695 0.2991 0.6937 0.8229 0.6773 1.582 0.6862 1.545-0.5237 2.12-0.6055 0.2877-1.645 0.9625-2.311 1.5l-1.21 0.9767zm-4.84-3.138c0-0.2519 4.112-2.036 4.693-2.036 0.127 0-0.2423 0.4792-0.8207 1.065l-1.052 1.065h-1.41c-0.7757 0-1.41-0.0421-1.41-0.09354zm-48.89-14.79c-2.132-0.9839-2.8-3.357-1.465-5.2 1.774-2.448 5.352-1.679 6.217 1.337 0.3853 1.344-0.5914 3.21-2.019 3.858-1.005 0.4566-1.751 0.4578-2.733 0.0045z" fill="#ef7d11"/><path id="path229023" d="m109.5 64.92v-15h6.196v2.387l0.8798-0.8925c1.279-1.297 2.597-1.766 4.929-1.752 2.926 0.01745 4.986 0.9471 7.057 3.185 1.755 1.895 3.01 5.156 3.01 7.818 0 2.642-1.233 5.837-3.011 7.802-1.986 2.195-4.117 3.176-6.96 3.207-2.306 0.0244-3.501-0.3836-4.806-1.642-0.5387-0.5192-1.006-0.944-1.039-0.944-0.0329 0-0.0599 2.44-0.0599 5.421v5.421h-6.196zm12.32 0.7788c2.127-0.6316 3.431-2.541 3.445-5.044 7e-3 -1.169-0.0763-1.51-0.5878-2.42-0.7255-1.291-1.755-2.054-3.169-2.349-2.293-0.4781-4.225 0.3882-5.169 2.319-0.4528 0.9252-0.5366 1.338-0.5262 2.594 0.0103 1.256 0.1026 1.67 0.5815 2.606 1.085 2.122 3.116 2.98 5.426 2.294zm-45.49 5.391c-1.282-0.3936-2.637-1.767-3.234-3.277-0.4302-1.088-0.4589-1.436-0.5279-6.426l-0.07304-5.276h-2.485v-6.196h2.517v-6.002h6.196v6.002h5.615v6.196h-5.615l0.0011 3.243c0.0012 3.667 0.1361 4.383 0.978 5.19 0.5682 0.5448 0.6831 0.5727 2.615 0.6359l2.021 0.06603v6.16l-3.533-0.01349c-2.551-0.0097-3.795-0.09385-4.474-0.3025zm13.29-1.162c-1.346-0.9137-2.723-2.447-3.492-3.888-0.3441-0.6456-0.6256-1.253-0.6256-1.349 0-0.09632 0.4256-0.4997 0.9458-0.8964l0.9458-0.7213 1.529 0.5986c1.385 0.5422 1.529 0.6475 1.523 1.117-0.0055 0.436 0.07183 0.5136 0.4857 0.4876 0.4361-0.02742 0.5497 0.1161 0.9957 1.258l0.5035 1.289-0.3904 0.6424c-0.2147 0.3533-0.556 0.985-0.7582 1.404-0.2023 0.4187-0.4311 0.7577-0.5085 0.7533-0.07738-0.0044-0.5968-0.3175-1.154-0.6958zm3.434-4.19v-1.214l1.505-1.496c0.8276-0.8228 1.658-1.496 1.846-1.496 0.2173 0 0.4695 0.2991 0.6937 0.8229 0.6773 1.582 0.6862 1.545-0.5237 2.12-0.6055 0.2877-1.645 0.9625-2.311 1.5l-1.21 0.9767zm12.87-1.688c-1.208-0.5226-2.659-0.7752-4.453-0.7752h-1.636v-1.549c0-1.375 0.04001-1.549 0.3563-1.549 0.8718 0 3.571 0.8571 5.21 1.654 1.884 0.9165 1.993 1.061 1.54 2.049l-0.2333 0.5089zm-17.71-1.45c0-0.2519 4.112-2.036 4.693-2.036 0.127 0-0.2423 0.4792-0.8207 1.065l-1.052 1.065h-1.41c-0.7757 0-1.41-0.0421-1.41-0.09354z" fill="#61b454"/><path id="path229022" d="m89.66 69.92c-1.346-0.9137-2.723-2.447-3.492-3.888-0.3441-0.6456-0.6256-1.253-0.6256-1.349 0-0.09632 0.4256-0.4997 0.9458-0.8964l0.9458-0.7213 1.529 0.5986c1.385 0.5422 1.529 0.6475 1.523 1.117-0.0055 0.436 0.07183 0.5136 0.4857 0.4876 0.4361-0.02742 0.5497 0.1161 0.9957 1.258l0.5035 1.289-0.3904 0.6424c-0.2147 0.3533-0.556 0.985-0.7582 1.404-0.2023 0.4187-0.4311 0.7577-0.5085 0.7533-0.07738-0.0044-0.5968-0.3175-1.154-0.6958zm3.434-4.19v-1.214l1.505-1.496c0.8276-0.8228 1.658-1.496 1.846-1.496 0.2173 0 0.4695 0.2991 0.6937 0.8229 0.6773 1.582 0.6862 1.545-0.5237 2.12-0.6055 0.2877-1.645 0.9625-2.311 1.5l-1.21 0.9767zm12.87-1.688c-1.208-0.5226-2.659-0.7752-4.453-0.7752h-1.636v-1.549c0-1.375 0.04001-1.549 0.3563-1.549 0.8718 0 3.571 0.8571 5.21 1.654 1.884 0.9165 1.993 1.061 1.54 2.049l-0.2333 0.5089zm-17.71-1.45c0-0.2519 4.112-2.036 4.693-2.036 0.127 0-0.2423 0.4792-0.8207 1.065l-1.052 1.065h-1.41c-0.7757 0-1.41-0.0421-1.41-0.09354z" fill="#1174ba"/></g></g></svg>
